<svg width="126" height="148" viewBox="0 0 126 148" fill="none" xmlns="http://www.w3.org/2000/svg">
<path d="M111.513 136.573L117.329 134.1L100.548 94.6414L94.7318 97.1149L111.513 136.573Z" fill="#5532FA"/>
<path d="M101.381 98.4119C104.457 94.7806 104.008 89.343 100.376 86.2668C96.745 83.1905 91.3075 83.6404 88.2312 87.2717C85.1549 90.9029 85.6049 96.3405 89.2361 99.4168C92.8674 102.493 98.3049 102.043 101.381 98.4119Z" fill="#263238"/>
<path d="M94.824 101.491C93.4721 101.492 92.1389 101.175 90.9318 100.566C89.7246 99.9577 88.6772 99.0742 87.8739 97.9868C87.0706 96.8994 86.5338 95.6386 86.3067 94.3059C86.0797 92.9731 86.1687 91.6057 86.5666 90.3137C87.0384 88.7897 87.9235 87.4264 89.1236 86.3754C90.3237 85.3243 91.7918 84.6266 93.3646 84.3598C94.9374 84.093 96.5534 84.2676 98.033 84.8641C99.5126 85.4607 100.798 86.4558 101.746 87.7389C102.694 89.0221 103.267 90.5429 103.403 92.1325C103.538 93.722 103.23 95.318 102.513 96.743C101.796 98.168 100.697 99.3662 99.3399 100.204C97.9825 101.043 96.4193 101.488 94.824 101.491ZM94.824 84.2475C93.2314 84.2491 91.6705 84.6925 90.3149 85.5284C88.9593 86.3643 87.8621 87.5599 87.1455 88.9821C86.4289 90.4044 86.1208 91.9976 86.2557 93.5845C86.3906 95.1713 86.9631 96.6897 87.9094 97.9706C88.8558 99.2515 90.139 100.245 91.6162 100.84C93.0935 101.435 94.7068 101.609 96.2769 101.341C97.8469 101.074 99.312 100.377 100.509 99.3266C101.707 98.2763 102.589 96.9145 103.058 95.3927C103.728 93.2118 103.506 90.8542 102.439 88.8374C101.373 86.8205 99.55 85.3091 97.3704 84.635C96.5368 84.3768 95.669 84.2462 94.7964 84.2475H94.824Z" fill="#263238"/>
<path d="M112.253 118.607C113.209 115.168 111.196 111.605 107.757 110.65C104.318 109.694 100.755 111.707 99.7992 115.146C98.8436 118.585 100.857 122.148 104.296 123.103C107.735 124.059 111.297 122.046 112.253 118.607Z" fill="#263238"/>
<path d="M115.772 142.275C118.689 142.275 121.054 139.91 121.054 136.993C121.054 134.076 118.689 131.711 115.772 131.711C112.855 131.711 110.49 134.076 110.49 136.993C110.49 139.91 112.855 142.275 115.772 142.275Z" fill="#263238"/>
<path d="M108.864 142.312L111.821 137.459L113.897 138.724L110.94 143.577C110.784 143.833 110.532 144.017 110.241 144.088C109.95 144.158 109.642 144.11 109.386 143.954L109.244 143.868C109.117 143.791 109.006 143.69 108.918 143.57C108.83 143.45 108.766 143.314 108.731 143.169C108.695 143.025 108.689 142.875 108.712 142.727C108.735 142.58 108.786 142.439 108.864 142.312Z" fill="#263238"/>
<path d="M116.228 146.942L114.475 141.691C114.461 141.651 114.464 141.606 114.483 141.568C114.503 141.53 114.536 141.5 114.577 141.487L116.572 140.821C116.613 140.807 116.657 140.81 116.695 140.829C116.734 140.849 116.763 140.882 116.776 140.923L118.529 146.174C118.574 146.315 118.591 146.464 118.579 146.612C118.567 146.76 118.526 146.904 118.458 147.036C118.39 147.168 118.296 147.285 118.183 147.381C118.07 147.477 117.939 147.55 117.797 147.595L117.64 147.647C117.359 147.737 117.054 147.714 116.79 147.582C116.526 147.45 116.324 147.221 116.228 146.942Z" fill="#263238"/>
<path d="M119.94 145.682L117.083 140.941C117.072 140.923 117.065 140.902 117.062 140.882C117.059 140.861 117.06 140.839 117.065 140.819C117.07 140.798 117.079 140.779 117.092 140.762C117.104 140.745 117.12 140.73 117.138 140.719L118.94 139.634C118.958 139.623 118.978 139.615 118.999 139.612C119.02 139.609 119.042 139.61 119.062 139.615C119.083 139.62 119.102 139.629 119.119 139.642C119.136 139.655 119.151 139.67 119.162 139.689L122.019 144.43C122.173 144.687 122.22 144.994 122.147 145.285C122.075 145.576 121.89 145.827 121.634 145.981L121.491 146.067C121.235 146.222 120.927 146.268 120.636 146.196C120.345 146.124 120.095 145.939 119.94 145.682Z" fill="#263238"/>
<path d="M123.507 143.069L119.363 139.398C119.331 139.37 119.312 139.33 119.309 139.287C119.306 139.244 119.321 139.202 119.349 139.17L120.741 137.599C120.77 137.567 120.81 137.547 120.852 137.545C120.895 137.542 120.937 137.557 120.969 137.585L125.113 141.256C125.337 141.455 125.473 141.735 125.491 142.034C125.509 142.333 125.408 142.627 125.209 142.852L125.099 142.976C124.9 143.199 124.62 143.334 124.322 143.351C124.024 143.369 123.73 143.267 123.507 143.069Z" fill="#263238"/>
<path d="M14.4452 136.571L8.62939 134.098L25.4109 94.6395L31.2267 97.1129L14.4452 136.571Z" fill="#5532FA"/>
<path d="M24.5778 98.4109C21.5015 94.7796 21.9514 89.3421 25.5827 86.2658C29.2139 83.1895 34.6515 83.6394 37.7278 87.2707C40.804 90.902 40.3541 96.3395 36.7229 99.4158C33.0916 102.492 27.654 102.042 24.5778 98.4109Z" fill="#263238"/>
<path d="M13.7053 118.606C12.7497 115.167 14.7628 111.604 18.2019 110.649C21.6409 109.693 25.2036 111.706 26.1592 115.145C27.1149 118.584 25.1017 122.147 21.6627 123.102C18.2236 124.058 14.661 122.045 13.7053 118.606Z" fill="#263238"/>
<path d="M10.1868 142.274C7.26962 142.274 4.90481 139.909 4.90481 136.992C4.90481 134.075 7.26962 131.71 10.1868 131.71C13.1039 131.71 15.4688 134.075 15.4688 136.992C15.4688 139.909 13.1039 142.274 10.1868 142.274Z" fill="#263238"/>
<path d="M17.0949 142.31L14.1373 137.457L12.0613 138.722L15.019 143.575C15.175 143.831 15.4263 144.015 15.7176 144.086C16.0089 144.156 16.3163 144.108 16.5723 143.952L16.7141 143.866C16.8415 143.789 16.9524 143.688 17.0405 143.568C17.1286 143.448 17.1922 143.312 17.2276 143.167C17.263 143.023 17.2695 142.873 17.2467 142.726C17.224 142.578 17.1724 142.437 17.0949 142.31Z" fill="#263238"/>
<path d="M9.73096 146.94L11.4838 141.689C11.4974 141.649 11.4942 141.604 11.4751 141.566C11.456 141.528 11.4224 141.498 11.3818 141.485L9.38644 140.819C9.34582 140.805 9.30148 140.808 9.26317 140.828C9.22486 140.847 9.19573 140.88 9.18217 140.921L7.42933 146.172C7.38405 146.313 7.36706 146.462 7.37932 146.61C7.39158 146.758 7.43287 146.902 7.50082 147.034C7.56876 147.166 7.66203 147.283 7.77531 147.379C7.88859 147.475 8.01966 147.548 8.16102 147.593L8.31854 147.645C8.59946 147.735 8.90444 147.712 9.16834 147.58C9.43224 147.448 9.63416 147.219 9.73096 146.94Z" fill="#263238"/>
<path d="M6.01834 145.68L8.87523 140.939C8.88617 140.921 8.89343 140.901 8.89659 140.88C8.89975 140.859 8.89874 140.837 8.89364 140.817C8.88853 140.796 8.87944 140.777 8.86684 140.76C8.85425 140.743 8.83842 140.728 8.82026 140.717L7.01848 139.632C7.00032 139.621 6.98018 139.613 6.95922 139.61C6.93825 139.607 6.91687 139.608 6.89629 139.613C6.87571 139.618 6.85634 139.627 6.83928 139.64C6.82222 139.653 6.80781 139.668 6.79687 139.687L3.93998 144.428C3.78529 144.685 3.73892 144.993 3.81108 145.283C3.88324 145.574 4.06801 145.825 4.32475 145.979L4.467 146.065C4.72375 146.22 5.03144 146.266 5.32237 146.194C5.6133 146.122 5.86365 145.937 6.01834 145.68Z" fill="#263238"/>
<path d="M2.45191 143.066L6.59533 139.395C6.62739 139.367 6.64685 139.327 6.64943 139.284C6.65202 139.241 6.63751 139.199 6.60911 139.167L5.21722 137.596C5.18882 137.564 5.14885 137.545 5.10611 137.542C5.06337 137.539 5.02134 137.554 4.98929 137.582L0.845869 141.253C0.621509 141.452 0.485299 141.732 0.467209 142.031C0.449119 142.33 0.550629 142.624 0.749405 142.849L0.85953 142.973C1.05869 143.196 1.33807 143.331 1.63652 143.348C1.93496 143.366 2.22815 143.264 2.45191 143.066Z" fill="#263238"/>
<path d="M28.396 82.9924C28.396 82.9924 29.0188 143.488 62.9664 144.669C96.914 145.85 98.3394 83.426 98.3394 82.9924C98.3394 82.9924 94.3307 73.9738 63.3677 74.3244C32.4048 74.675 28.396 82.9924 28.396 82.9924Z" fill="#5532FA"/>
<path d="M47.4561 72.3457H76.1494C78.022 72.3457 79.54 70.8277 79.54 68.9551V68.4615C79.54 66.5889 78.022 65.0709 76.1494 65.0709H47.4561C45.5835 65.0709 44.0655 66.5889 44.0655 68.4615V68.9551C44.0655 70.8277 45.5835 72.3457 47.4561 72.3457Z" fill="#263238"/>
<path d="M60.5677 18.5527H63.0449V6.02824H60.5677V18.5527Z" fill="#263238"/>
<path d="M99.6836 55.8384C103.595 54.9088 106.012 50.9843 105.082 47.073C104.153 43.1616 100.228 40.7445 96.317 41.6741C92.4056 42.6038 89.9885 46.5282 90.9181 50.4396C91.8478 54.3509 95.7722 56.7681 99.6836 55.8384Z" fill="#5532FA"/>
<path d="M26.1287 55.3662C30.0494 54.4769 32.5069 50.5776 31.6175 46.6569C30.7282 42.7362 26.8289 40.2787 22.9082 41.1681C18.9875 42.0574 16.53 45.9567 17.4194 49.8774C18.3087 53.7981 22.208 56.2556 26.1287 55.3662Z" fill="#5532FA"/>
<path d="M60.3642 15.8355C60.3642 15.8355 30.7667 15.4803 26.089 41.1336C21.4114 66.7869 46.4327 67.2482 53.6337 67.7326C56.8951 67.954 63.8793 67.9771 70.0424 67.8664C83.6879 67.6311 93.3292 64.9924 96.6091 52.3341C96.9997 50.8499 97.2453 49.3312 97.3426 47.7995C98.2052 33.9049 88.8268 15.1528 60.3642 15.8355Z" fill="#5532FA"/>
<path d="M81.8335 54.8812L38.835 55.5501C37.7622 55.569 36.6961 55.3762 35.6979 54.9826C34.6996 54.5891 33.7888 54.0025 33.0176 53.2565C32.2463 52.5105 31.6297 51.6197 31.2031 50.6352C30.7765 49.6506 30.5483 48.5916 30.5315 47.5187C30.5131 46.4456 30.7065 45.3795 31.1006 44.3812C31.4947 43.383 32.0817 42.4722 32.828 41.701C33.5744 40.9298 34.4655 40.3133 35.4503 39.8867C36.4351 39.4602 37.4943 39.232 38.5674 39.2152L81.5659 38.5463C82.6389 38.5267 83.7052 38.7191 84.7037 39.1125C85.7022 39.5058 86.6133 40.0924 87.3847 40.8385C88.1561 41.5846 88.7726 42.4756 89.199 43.4604C89.6254 44.4453 89.8532 45.5046 89.8694 46.5776C89.8884 47.6509 89.6954 48.7173 89.3015 49.7158C88.9077 50.7143 88.3207 51.6254 87.5742 52.3967C86.8278 53.168 85.9365 53.7845 84.9514 54.2108C83.9663 54.6372 82.9067 54.865 81.8335 54.8812Z" fill="#263238"/>
<path d="M47.7708 46.6279C47.6708 47.1363 47.4223 47.6037 47.0567 47.9709C46.6911 48.3381 46.2248 48.5886 45.7168 48.6909C45.2088 48.7931 44.682 48.7425 44.2028 48.5453C43.7236 48.3481 43.3136 48.0133 43.0247 47.5831C42.7358 47.153 42.5809 46.6468 42.5796 46.1287C42.5783 45.6105 42.7307 45.1036 43.0175 44.672C43.3043 44.2404 43.7126 43.9036 44.1908 43.704C44.669 43.5045 45.1956 43.4512 45.7041 43.5509C46.0419 43.6172 46.3633 43.7493 46.65 43.9398C46.9367 44.1304 47.183 44.3755 47.3749 44.6612C47.5669 44.947 47.7006 45.2677 47.7685 45.6052C47.8365 45.9426 47.8372 46.2901 47.7708 46.6279Z" fill="white"/>
<path d="M77.797 46.1478C77.6979 46.6567 77.45 47.1246 77.0848 47.4926C76.7196 47.8605 76.2534 48.1118 75.7453 48.2147C75.2373 48.3176 74.7101 48.2675 74.2305 48.0707C73.7509 47.8738 73.3404 47.5392 73.0511 47.1091C72.7618 46.6789 72.6065 46.1726 72.605 45.6542C72.6035 45.1358 72.7558 44.6286 73.0426 44.1968C73.3295 43.765 73.7379 43.428 74.2164 43.2284C74.6948 43.0288 75.2217 42.9756 75.7304 43.0755C76.4116 43.2094 77.0118 43.6081 77.3993 44.1841C77.7868 44.7602 77.9298 45.4664 77.797 46.1478Z" fill="white"/>
<path d="M73.4753 107.017C73.3068 109.326 72.4575 111.532 71.0349 113.358C69.6123 115.184 67.6803 116.547 65.4831 117.275C63.2859 118.003 60.9222 118.063 58.6909 117.447C56.4596 116.832 54.4609 115.568 52.9476 113.817C51.4343 112.066 50.4742 109.905 50.1889 107.608C49.9036 105.311 50.3057 102.981 51.3446 100.913C52.3834 98.8442 54.0122 97.1303 56.0251 95.9876C58.038 94.8449 60.3445 94.3247 62.653 94.4928C65.7486 94.7195 68.6276 96.1661 70.6569 98.5147C72.6863 100.863 73.7001 103.922 73.4753 107.017Z" fill="#263238"/>
<path d="M70.3059 106.787C70.1828 108.469 69.5635 110.078 68.5264 111.408C67.4893 112.739 66.0809 113.732 64.4793 114.262C62.8777 114.792 61.1549 114.835 59.5288 114.386C57.9026 113.937 56.4461 113.016 55.3435 111.739C54.2409 110.462 53.5417 108.887 53.3343 107.213C53.1268 105.539 53.4205 103.841 54.1782 102.333C54.9359 100.826 56.1236 99.5774 57.591 98.7451C59.0584 97.9128 60.7397 97.5343 62.4222 97.6576C63.5395 97.7388 64.6298 98.0394 65.6308 98.5423C66.6319 99.0452 67.524 99.7404 68.2562 100.588C68.9883 101.436 69.5462 102.42 69.8979 103.484C70.2497 104.547 70.3883 105.67 70.3059 106.787Z" fill="white"/>
<path d="M66.1947 108.336C66.1295 107.87 66.1033 107.4 66.1163 106.929C66.0932 106.048 66.0747 104.789 66.0747 103.239L66.167 103.41L61.78 100.849H62.0245L57.5959 103.336C57.476 103.539 57.7574 103.064 57.7297 103.114V103.77V104.429C57.7297 104.863 57.7297 105.296 57.7066 105.721C57.7066 106.57 57.6743 107.391 57.6605 108.184L57.5405 107.972L61.8768 110.62H61.6831C63.0347 109.891 64.1511 109.31 64.9122 108.913C65.3218 108.68 65.749 108.479 66.1901 108.313C65.846 108.594 65.4752 108.839 65.0829 109.047C64.3356 109.508 63.2377 110.159 61.8538 110.957L61.7569 111.012L61.66 110.957L57.2684 108.396L57.1484 108.327V108.18C57.1484 107.386 57.1577 106.565 57.1761 105.716C57.1761 105.292 57.1761 104.863 57.1761 104.425V103.77V103.133C57.1484 103.184 57.4298 102.713 57.3099 102.911L61.7523 100.448L61.8814 100.379L62.0014 100.453L66.3331 103.101L66.4299 103.161V103.271C66.3792 104.867 66.3285 106.15 66.2823 107.022C66.2941 107.462 66.2648 107.902 66.1947 108.336Z" fill="#5532FA"/>
<path d="M64.6961 8.66025C66.2904 7.06591 66.2904 4.48097 64.6961 2.88662C63.1017 1.29228 60.5168 1.29228 58.9225 2.88663C57.3281 4.48097 57.3281 7.06591 58.9225 8.66025C60.5168 10.2546 63.1017 10.2546 64.6961 8.66025Z" fill="#5532FA"/>
<path d="M65.0004 51.7279C64.8066 51.7048 64.9035 50.8053 64.3315 49.5736C64.0074 48.8666 63.5355 48.2374 62.9475 47.7283C62.2584 47.122 61.4006 46.7406 60.4888 46.635C59.5721 46.5759 58.659 46.7946 57.8685 47.2624C57.1996 47.6515 56.6209 48.1782 56.1709 48.8078C55.3867 49.9011 55.3175 50.8191 55.1238 50.8053C55.0453 50.8053 54.9669 50.5746 54.9669 50.141C54.9845 49.5232 55.1422 48.9174 55.4282 48.3696C55.858 47.5415 56.4934 46.8378 57.2735 46.326C58.2378 45.6464 59.4125 45.3322 60.5873 45.4396C61.7621 45.5469 62.8604 46.0688 63.6856 46.9118C64.3592 47.556 64.855 48.3632 65.1249 49.2553C65.3172 49.8504 65.3678 50.4823 65.2725 51.1005C65.1941 51.5295 65.0742 51.7417 65.0004 51.7279Z" fill="white"/>
<path d="M94.6947 57.3716C94.6486 57.3716 95.1791 56.5412 95.6911 55.0881C96.3279 53.185 96.7307 51.2115 96.8905 49.211C97.0753 47.2176 97.1215 45.2138 97.0289 43.214C96.9966 42.4437 96.9597 41.8301 96.9228 41.3688C96.8917 41.1457 96.8839 40.92 96.8998 40.6953C96.9588 40.9127 96.9975 41.1351 97.0151 41.3596C97.0797 41.7886 97.1442 42.4114 97.1996 43.2048C97.3443 45.2207 97.3211 47.2451 97.1304 49.2572C96.9681 51.2764 96.5384 53.2651 95.8526 55.1711C95.6355 55.746 95.3732 56.3029 95.0684 56.8365C94.9594 57.0252 94.8343 57.2042 94.6947 57.3716Z" fill="#263238"/>
<path d="M26.1446 40.2744C26.1185 40.4984 26.0706 40.7194 26.0016 40.9341C25.9416 41.1417 25.8771 41.3954 25.8171 41.6999C25.7571 42.0043 25.6649 42.3365 25.6095 42.7193C25.4478 43.6085 25.3399 44.5066 25.2866 45.4088C25.2245 46.5126 25.2399 47.6193 25.3327 48.721C25.4358 49.8206 25.6146 50.9119 25.8678 51.987C26.0796 52.8664 26.3446 53.7322 26.6613 54.5796C26.7858 54.944 26.9288 55.2623 27.0442 55.5483C27.1595 55.8343 27.2702 56.0742 27.3625 56.2679C27.4676 56.4671 27.5541 56.6756 27.6208 56.8907C27.4895 56.7078 27.3753 56.5132 27.2794 56.3095C27.149 56.0789 27.0305 55.8417 26.9242 55.599C26.7951 55.3223 26.6382 55.004 26.5044 54.6395C26.1619 53.7944 25.8783 52.9266 25.6556 52.0424C25.3857 50.957 25.1975 49.8529 25.0928 48.7394C24.9988 47.6269 24.9896 46.5088 25.0652 45.3949C25.1295 44.4847 25.2559 43.58 25.4434 42.687C25.5126 42.3042 25.6095 41.9674 25.6879 41.6676C25.7663 41.3677 25.8402 41.114 25.9094 40.9064C25.9705 40.6897 26.0492 40.4783 26.1446 40.2744Z" fill="#263238"/>
<path d="M28.2383 82.9424L28.4136 82.9931L28.9302 83.1684L30.8954 83.8604L32.3162 84.3678C32.8375 84.5431 33.4141 84.7092 34.0277 84.8983C35.2594 85.2628 36.6479 85.7379 38.2256 86.1069L40.6844 86.7389C41.5424 86.9557 42.4465 87.1172 43.3784 87.3202C45.2236 87.7446 47.2488 88.0352 49.3754 88.3766C53.9744 89.0075 58.6095 89.3388 63.2515 89.3684C67.8936 89.3411 72.5289 89.0098 77.1276 88.3766C79.2404 88.0352 81.2517 87.7492 83.1246 87.3202C84.0472 87.1218 84.9699 86.9604 85.8187 86.7436L88.2821 86.1116C89.8551 85.7425 91.2436 85.2674 92.4753 84.9029C93.0889 84.7138 93.6655 84.5477 94.1868 84.3724L95.6076 83.865L97.5728 83.173L98.0894 82.9977C98.1475 82.9748 98.2078 82.9578 98.2694 82.947L98.0987 83.0208L97.5912 83.2192L95.6399 83.9526L94.1868 84.497C93.6701 84.6769 93.0935 84.8476 92.4799 85.0459C91.2483 85.4242 89.8643 85.9086 88.2867 86.2915L85.8233 86.9373C84.9699 87.1587 84.0611 87.3248 83.1292 87.5324C81.284 87.966 79.2543 88.2613 77.1322 88.6119C72.5238 89.2585 67.8773 89.596 63.2238 89.6221C58.5719 89.5926 53.927 89.2535 49.32 88.6072C47.2026 88.2613 45.1683 87.9614 43.323 87.5278C42.4004 87.3202 41.4778 87.1541 40.629 86.9327L38.1656 86.2869C36.5879 85.904 35.204 85.4196 33.9723 85.0413C33.3588 84.843 32.7868 84.6723 32.2655 84.4924L30.8493 83.9619L28.8979 83.2284L28.3905 83.03C28.3371 83.0057 28.2861 82.9764 28.2383 82.9424Z" fill="#263238"/>
<g opacity="0.3">
<path d="M28.3955 82.9922C28.3955 82.9922 32.4043 74.6886 63.3672 74.3242C94.3302 73.9598 98.3389 82.9922 98.3389 82.9922C98.3389 82.9922 67.09 98.3952 28.3955 82.9922Z" fill="black"/>
</g>
<path d="M56.6137 17.7548C56.5784 17.7581 56.5429 17.7581 56.5076 17.7548L56.1985 17.7871C55.9217 17.8148 55.5158 17.824 54.9945 17.8839C53.5236 18.0267 52.0641 18.2687 50.6259 18.6082C43.1871 20.3118 36.6259 24.6718 32.1736 30.8697C30.0226 33.8482 28.394 37.1709 27.3575 40.6956C27.1961 41.1938 27.1084 41.5905 27.03 41.8535L26.9424 42.1579C26.9341 42.1931 26.9217 42.2272 26.9055 42.2594C26.8993 42.2243 26.8993 42.1884 26.9055 42.1533C26.9055 42.0703 26.9424 41.9688 26.9701 41.8442C27.0346 41.5767 27.1038 41.1754 27.2514 40.6679C27.6365 39.2348 28.13 37.8329 28.7276 36.4746C30.6994 31.9607 33.7012 27.9715 37.4925 24.8266C41.2999 21.7055 45.785 19.519 50.589 18.4421C52.0357 18.1134 53.5054 17.896 54.9853 17.7917C55.5111 17.7456 55.9079 17.7502 56.1939 17.7363H56.5076C56.5814 17.7456 56.6137 17.7502 56.6137 17.7548Z" fill="white"/>
<path d="M27.6576 53.2654C27.4728 52.9797 27.3299 52.669 27.2332 52.3427C26.686 50.8011 26.431 49.171 26.4813 47.5359C26.4681 47.1965 26.5086 46.8571 26.6013 46.5303C26.6751 46.5303 26.5736 48.071 26.8688 49.9347C27.164 51.7984 27.7268 53.2377 27.6576 53.2654Z" fill="white"/>
<path d="M19.8946 50.8821C19.8946 50.8821 19.7885 50.8083 19.6455 50.633C19.4416 50.3846 19.2667 50.1137 19.1242 49.8257C18.6315 48.8721 18.4431 47.7904 18.5841 46.7264C18.7251 45.6624 19.1889 44.6672 19.913 43.8748C20.1251 43.6322 20.3651 43.4154 20.628 43.229C20.7183 43.153 20.8214 43.0936 20.9325 43.0537C20.9602 43.0906 20.545 43.372 20.0422 43.9763C19.3822 44.7667 18.96 45.728 18.8245 46.7486C18.6889 47.7693 18.8456 48.8075 19.2764 49.7427C19.5993 50.4761 19.9269 50.8544 19.8946 50.8821Z" fill="white"/>
<path d="M62.071 2.9283C61.711 2.88868 61.3483 2.88097 60.9869 2.90524C60.5567 2.94299 60.1408 3.0788 59.7712 3.30224C59.4016 3.52568 59.088 3.83082 58.8547 4.19425C58.6213 4.55767 58.4743 4.96973 58.4249 5.3988C58.3755 5.82787 58.425 6.26256 58.5697 6.66951C58.6942 7.00703 58.8486 7.33277 59.031 7.64287C59.031 7.64287 58.9387 7.58751 58.8096 7.43989C58.6323 7.22634 58.492 6.98467 58.3944 6.72487C58.2184 6.29409 58.1488 5.82727 58.1914 5.36389C58.234 4.90051 58.3876 4.45421 58.6392 4.06276C58.8908 3.67132 59.233 3.34625 59.6369 3.11505C60.0407 2.88386 60.4943 2.75334 60.9592 2.73456C61.2354 2.7154 61.5128 2.74189 61.7804 2.81298C61.988 2.84527 62.071 2.91447 62.071 2.9283Z" fill="white"/>
<path d="M102.279 45.2853C102.228 45.3406 101.513 44.6533 100.434 44.1366C99.3543 43.6199 98.3717 43.4677 98.3809 43.3939C99.1329 43.3752 99.8764 43.5567 100.535 43.9198C101.229 44.2099 101.831 44.6816 102.279 45.2853Z" fill="white"/>
<path d="M39.0056 126.047C38.9846 126.019 38.966 125.99 38.9503 125.959L38.798 125.687C38.6596 125.424 38.4751 125.073 38.2352 124.626C38.1153 124.395 37.9861 124.137 37.8385 123.86L37.4049 122.937C37.0912 122.269 36.7406 121.507 36.3946 120.631C36.2193 120.202 36.0348 119.75 35.841 119.284C35.6473 118.818 35.4812 118.311 35.2921 117.798C34.8954 116.779 34.5586 115.658 34.1665 114.496C33.4423 112.143 32.7318 109.536 32.1091 106.769C31.4863 104.001 31.0342 101.33 30.6652 98.8987C30.2961 96.4676 30.0563 94.2857 29.9086 92.4127C29.821 91.4901 29.7656 90.6505 29.7195 89.9125C29.6734 89.1744 29.6319 88.5285 29.618 88.0211C29.6042 87.5137 29.5903 87.1215 29.5765 86.8263V86.5172C29.5715 86.482 29.5715 86.4463 29.5765 86.4111C29.5818 86.4463 29.5818 86.4821 29.5765 86.5172L29.6042 86.8263C29.6042 87.1169 29.6549 87.5183 29.6872 88.0165C29.7195 88.5147 29.7656 89.1698 29.8302 89.9032C29.8948 90.6367 29.9548 91.4763 30.0563 92.3989C30.2223 94.2441 30.5176 96.44 30.8635 98.8572C31.2095 101.274 31.7123 103.932 32.3213 106.699C32.9302 109.467 33.6452 112.069 34.351 114.417C34.7431 115.58 35.0707 116.696 35.4582 117.715C35.6427 118.232 35.818 118.726 35.9933 119.201L36.5284 120.557C36.8605 121.42 37.2019 122.186 37.5064 122.864L37.9215 123.786C38.0553 124.068 38.1845 124.326 38.2998 124.561L38.8165 125.641L38.9456 125.922C38.9736 125.959 38.994 126.002 39.0056 126.047Z" fill="white"/>
<path d="M55.3822 140.591C55.2005 140.587 55.0197 140.566 54.8424 140.526C54.3543 140.439 53.8721 140.322 53.3985 140.176C52.695 139.961 52.0075 139.698 51.3411 139.387C50.5293 138.995 49.7489 138.542 49.0069 138.03C48.2731 137.506 47.5821 136.925 46.9402 136.291C46.4204 135.771 45.9393 135.212 45.5009 134.621C45.2006 134.227 44.9278 133.812 44.6844 133.38C44.5848 133.229 44.5028 133.066 44.4399 132.896C44.4768 132.873 44.8643 133.542 45.6347 134.52C46.0876 135.088 46.576 135.628 47.0971 136.134C48.3739 137.375 49.839 138.406 51.438 139.188C52.0911 139.504 52.7628 139.78 53.4493 140.014C54.6302 140.411 55.3914 140.545 55.3822 140.591Z" fill="white"/>
<path d="M62.4589 119.252C62.3522 119.27 62.2443 119.281 62.136 119.284C61.8292 119.31 61.5212 119.319 61.2134 119.312C60.0662 119.286 58.9282 119.102 57.832 118.763C57.0745 118.527 56.3372 118.23 55.6269 117.877C54.8126 117.458 54.0402 116.962 53.3204 116.396C51.6529 115.115 50.3386 113.431 49.501 111.502C48.6633 109.574 48.3299 107.464 48.532 105.371C48.6072 104.462 48.7694 103.563 49.0164 102.686C49.2375 101.925 49.523 101.184 49.8698 100.472C50.3702 99.4384 51.0131 98.4803 51.7796 97.6255C51.9852 97.3918 52.2039 97.17 52.4347 96.9612C52.511 96.8848 52.5927 96.8138 52.6792 96.749C52.6792 96.749 52.3747 97.0766 51.8488 97.6716C51.1106 98.5397 50.4902 99.5014 50.0036 100.532C49.2781 102.05 48.8461 103.692 48.7304 105.371C48.5434 107.427 48.8763 109.497 49.6986 111.39C50.5208 113.284 51.8059 114.94 53.4357 116.207C54.1344 116.769 54.8851 117.264 55.6777 117.683C56.3723 118.05 57.0959 118.358 57.8412 118.606C58.9212 118.956 60.0426 119.162 61.1765 119.219C62.0114 119.252 62.4589 119.224 62.4589 119.252Z" fill="white"/>
<path d="M74.7295 37.0555C74.7295 37.1201 69.0646 37.1754 62.0804 37.1754C55.0962 37.1754 49.4268 37.1201 49.4268 37.0555C49.4268 36.9909 55.0916 36.9355 62.0804 36.9355C69.0692 36.9355 74.7295 36.9817 74.7295 37.0555Z" fill="white"/>
<path d="M53.1405 65.9017C53.0714 65.9212 53.0001 65.932 52.9283 65.9339L52.3101 65.9893C52.0426 66.0124 51.715 66.0308 51.3322 66.04C50.9493 66.0493 50.5156 66.0677 50.0359 66.04C49.0717 66.04 47.9277 65.9709 46.6591 65.8371C45.2863 65.6773 43.9233 65.4417 42.5765 65.1313C41.2329 64.809 39.9084 64.4117 38.6093 63.9411C37.5508 63.5535 36.5131 63.1116 35.5001 62.6171C35.0388 62.4142 34.6836 62.202 34.3468 62.0221C34.0101 61.8421 33.7241 61.6807 33.4934 61.5608L32.9629 61.2378C32.9 61.203 32.8412 61.1612 32.7876 61.1133C32.7876 61.1133 32.8614 61.1133 32.986 61.1963L33.5395 61.4777C33.7748 61.6069 34.0654 61.7591 34.4068 61.939C34.7482 62.1189 35.1357 62.3035 35.5739 62.4972C36.4412 62.9032 37.4975 63.3368 38.6877 63.7658C41.2745 64.6932 43.9579 65.3246 46.6868 65.6479C47.9415 65.7956 49.081 65.8786 50.0359 65.9017C50.4972 65.9293 50.9585 65.9017 51.3322 65.9017C51.7058 65.9017 52.038 65.9017 52.3055 65.9017H52.9237C52.9954 65.8897 53.0687 65.8897 53.1405 65.9017Z" fill="white"/>
<path d="M89.9662 86.6865C89.9321 86.709 89.8948 86.7261 89.8555 86.7373L89.5233 86.8618L88.2409 87.3231C87.6827 87.5261 87 87.7614 86.1927 87.9966C85.3854 88.2319 84.4767 88.5364 83.4479 88.7947L81.8426 89.2191C81.2844 89.3621 80.6939 89.482 80.0896 89.625C78.881 89.9157 77.5709 90.1463 76.1962 90.4093C70.2085 91.4521 64.1232 91.825 58.053 91.521C56.669 91.4334 55.3266 91.3642 54.0903 91.2212C53.4722 91.1566 52.8725 91.1105 52.3005 91.032L50.6536 90.806C49.6018 90.6814 48.6607 90.4923 47.835 90.3447C47.0093 90.1971 46.2942 90.0587 45.7176 89.9249L44.389 89.6297L44.0431 89.5466C44.003 89.54 43.9642 89.5276 43.9277 89.5097C43.9692 89.5063 44.0108 89.5063 44.0523 89.5097L44.3983 89.5697L45.7361 89.8234C46.3173 89.9387 47.0277 90.0725 47.8581 90.1971C48.6884 90.3216 49.6249 90.5015 50.6767 90.6169L52.3189 90.8245C52.8909 90.8983 53.4906 90.9398 54.1088 90.9998C55.3405 91.1335 56.669 91.1935 58.0622 91.2765C60.8531 91.3919 63.9208 91.3965 67.1407 91.2073C70.3606 91.0182 73.4007 90.6169 76.1547 90.1648C77.5386 89.9111 78.8395 89.7035 80.0481 89.4082C80.6524 89.2698 81.2429 89.1545 81.8011 89.0161L83.4064 88.6056C84.4351 88.3611 85.3439 88.0751 86.1512 87.8444C86.9585 87.6138 87.6504 87.3831 88.2086 87.2124L89.5049 86.7972L89.8463 86.6957L89.9662 86.6865Z" fill="white"/>
</svg>
