<svg width="24" height="24" viewBox="0 0 24 24" fill="none" xmlns="http://www.w3.org/2000/svg">
<path d="M5.96582 24.0001C5.95333 24.0001 5.93459 24.0001 5.91585 24.0001C5.91585 23.0256 5.9221 22.0511 5.9221 21.0703C5.9221 20.6643 5.79716 20.5394 5.39112 20.5394C4.64776 20.5394 3.91065 20.5394 3.16728 20.5394C2.41143 20.5394 2.03662 20.1646 2.03662 19.3962C2.03662 15.3546 2.03662 11.3067 2.03662 7.26502C2.03662 6.49043 2.41143 6.10938 3.17978 6.10938C9.02673 6.10938 14.8737 6.10938 20.7269 6.10938C21.514 6.10938 21.8825 6.48418 21.8825 7.27127C21.8825 11.3067 21.8763 15.3421 21.8888 19.3837C21.8888 20.0396 21.5077 20.5519 20.7206 20.5456C17.8784 20.5206 15.0361 20.5331 12.1938 20.5456C12.0252 20.5456 11.8378 20.5956 11.6878 20.683C10.2886 21.4764 8.9018 22.2822 7.50877 23.088C6.99654 23.3879 6.47806 23.694 5.96582 24.0001ZM5.11002 11.7127C5.10377 12.8996 6.05953 13.8616 7.24641 13.8678C8.41455 13.8741 9.38279 12.9183 9.39529 11.7502C9.40153 10.5446 8.45828 9.58257 7.2589 9.57007C6.07827 9.56383 5.11627 10.5258 5.11002 11.7127ZM18.8154 11.7252C18.8154 10.5258 17.8534 9.57007 16.654 9.57007C15.4734 9.57632 14.5239 10.5446 14.5301 11.7377C14.5364 12.9183 15.5046 13.8803 16.6852 13.8678C17.8659 13.8616 18.8154 12.8996 18.8154 11.7252ZM12.1626 17.8033C12.3562 17.7783 12.7435 17.7471 13.1308 17.6721C13.743 17.5597 14.3115 17.3223 14.8425 17.0037C15.0548 16.8788 15.1111 16.6539 15.0049 16.4602C14.8987 16.2666 14.68 16.2041 14.4552 16.3103C14.3802 16.3478 14.3052 16.3915 14.2303 16.4352C13.6806 16.7288 13.0996 16.91 12.4749 16.9787C11.4255 17.0849 10.4447 16.8663 9.53272 16.3415C9.2766 16.1979 9.03922 16.2541 8.92678 16.4665C8.81434 16.6789 8.89555 16.885 9.13917 17.0287C10.0075 17.5409 10.957 17.7908 12.1626 17.8033Z" fill="white"/>
<path d="M12.2439 0.0124935C12.3626 0.049974 12.4812 0.0874545 12.5999 0.131182C13.3058 0.399792 13.7556 1.06195 13.7493 1.8178C13.7431 2.56117 13.2933 3.22332 12.5874 3.46694C12.4 3.52941 12.3563 3.61687 12.3626 3.79802C12.375 4.29776 12.3688 4.79125 12.3688 5.29724C12.0939 5.29724 11.8441 5.29724 11.5692 5.29724C11.5692 4.82249 11.5567 4.35398 11.5755 3.88548C11.588 3.6481 11.5317 3.52317 11.2819 3.42946C10.5447 3.14211 10.1325 2.42998 10.1887 1.61791C10.2387 0.899532 10.7884 0.256117 11.513 0.0562207C11.5692 0.0374805 11.6317 0.0187402 11.6879 0C11.8691 0.0124935 12.0565 0.0124935 12.2439 0.0124935Z" fill="white"/>
<path d="M1.22436 18.0718C0.961999 18.0718 0.712129 18.0906 0.462259 18.0656C0.187402 18.0406 0.0187402 17.8407 0 17.5658C0 17.4971 0 17.4284 0 17.3597C0 14.6736 0 11.9875 0 9.30138C0 8.73293 0.156169 8.58301 0.724623 8.58301C0.887038 8.58301 1.04945 8.58301 1.22436 8.58301C1.22436 11.7501 1.22436 14.8985 1.22436 18.0718Z" fill="white"/>
<path d="M22.6943 18.0845C22.6943 14.9049 22.6943 11.7565 22.6943 8.58318C22.9629 8.58318 23.2191 8.57069 23.4689 8.58943C23.7001 8.60192 23.8812 8.79557 23.9125 9.03295C23.9249 9.12665 23.9249 9.22035 23.9249 9.31405C23.9249 11.9939 23.9249 14.6675 23.9249 17.3474C23.9249 17.9283 23.7625 18.0845 23.1878 18.0845C23.0317 18.0845 22.8817 18.0845 22.6943 18.0845Z" fill="white"/>
<path d="M5.90332 11.7185C5.90332 10.9689 6.5155 10.3629 7.25886 10.3692C7.99598 10.3754 8.58942 10.9814 8.58942 11.7247C8.58942 12.4743 7.97099 13.0803 7.22763 13.074C6.49676 13.0615 5.90332 12.4618 5.90332 11.7185Z" fill="white"/>
<path d="M18.0157 11.7122C18.0157 12.4618 17.416 13.0678 16.6664 13.0678C15.9293 13.0678 15.3296 12.4618 15.3296 11.7247C15.3296 10.9751 15.9293 10.3629 16.6789 10.3692C17.416 10.3754 18.0157 10.9751 18.0157 11.7122Z" fill="white"/>
</svg>
