<svg width="62" height="62" viewBox="0 0 62 62" fill="none" xmlns="http://www.w3.org/2000/svg">
<circle cx="31" cy="31" r="31" fill="#5532FA"/>
<path d="M23.9599 45.0008C23.9453 45.0008 23.9235 45.0008 23.9016 45.0008C23.9016 43.8639 23.9089 42.727 23.9089 41.5829C23.9089 41.1092 23.7632 40.9634 23.2895 40.9634C22.4222 40.9634 21.5623 40.9634 20.695 40.9634C19.8132 40.9634 19.376 40.5262 19.376 39.6298C19.376 34.9147 19.376 30.1922 19.376 25.4771C19.376 24.5735 19.8132 24.1289 20.7096 24.1289C27.5309 24.1289 34.3521 24.1289 41.1807 24.1289C42.0989 24.1289 42.5289 24.5662 42.5289 25.4844C42.5289 30.1922 42.5216 34.9001 42.5362 39.6152C42.5362 40.3804 42.0916 40.978 41.1734 40.9707C37.8575 40.9416 34.5416 40.9561 31.2257 40.9707C31.029 40.9707 30.8103 41.029 30.6354 41.131C29.003 42.0566 27.3851 42.9967 25.76 43.9368C25.1624 44.2866 24.5575 44.6437 23.9599 45.0008ZM22.9615 30.6659C22.9542 32.0506 24.0692 33.1729 25.4539 33.1802C26.8167 33.1875 27.9463 32.0725 27.9609 30.7097C27.9681 29.3032 26.8677 28.1809 25.4685 28.1663C24.0911 28.159 22.9688 29.2813 22.9615 30.6659ZM38.9507 30.6805C38.9507 29.2813 37.8284 28.1663 36.4291 28.1663C35.0518 28.1736 33.944 29.3032 33.9513 30.6951C33.9586 32.0725 35.0882 33.1948 36.4656 33.1802C37.8429 33.1729 38.9507 32.0506 38.9507 30.6805ZM31.1893 37.7714C31.4152 37.7423 31.867 37.7058 32.3189 37.6184C33.0331 37.4872 33.6962 37.2103 34.3157 36.8386C34.5635 36.6929 34.6291 36.4305 34.5052 36.2046C34.3813 35.9787 34.1262 35.9058 33.8639 36.0297C33.7764 36.0734 33.689 36.1244 33.6015 36.1754C32.9602 36.5179 32.2824 36.7293 31.5537 36.8095C30.3293 36.9333 29.1852 36.6783 28.1212 36.0661C27.8224 35.8985 27.5455 35.9641 27.4143 36.2119C27.2831 36.4596 27.3778 36.7001 27.6621 36.8678C28.675 37.4653 29.7828 37.7568 31.1893 37.7714Z" fill="white"/>
<path d="M31.2825 17.0146C31.421 17.0583 31.5594 17.102 31.6979 17.153C32.5214 17.4664 33.0461 18.2389 33.0388 19.1207C33.0315 19.9879 32.5068 20.7604 31.6833 21.0447C31.4647 21.1175 31.4137 21.2196 31.421 21.4309C31.4355 22.0139 31.4282 22.5896 31.4282 23.1799C31.1076 23.1799 30.8161 23.1799 30.4954 23.1799C30.4954 22.6261 30.4808 22.0795 30.5027 21.5329C30.5173 21.256 30.4517 21.1102 30.1602 21.0009C29.3002 20.6657 28.8193 19.8349 28.8848 18.8875C28.9431 18.0494 29.5845 17.2988 30.4298 17.0656C30.4954 17.0437 30.5683 17.0219 30.6339 17C30.8452 17.0146 31.0639 17.0146 31.2825 17.0146Z" fill="white"/>
<path d="M18.4284 38.0827C18.1223 38.0827 17.8308 38.1045 17.5393 38.0754C17.2186 38.0462 17.0219 37.813 17 37.4924C17 37.4122 17 37.332 17 37.2519C17 34.1182 17 30.9845 17 27.8508C17 27.1876 17.1822 27.0127 17.8454 27.0127C18.0348 27.0127 18.2243 27.0127 18.4284 27.0127C18.4284 30.7075 18.4284 34.3805 18.4284 38.0827Z" fill="white"/>
<path d="M43.4756 38.0981C43.4756 34.3887 43.4756 30.7157 43.4756 27.0135C43.789 27.0135 44.0878 26.999 44.3793 27.0208C44.6489 27.0354 44.8602 27.2613 44.8967 27.5383C44.9113 27.6476 44.9113 27.7569 44.9113 27.8662C44.9113 30.9926 44.9113 34.1117 44.9113 37.2382C44.9113 37.9159 44.7218 38.0981 44.0513 38.0981C43.8691 38.0981 43.6942 38.0981 43.4756 38.0981Z" fill="white"/>
<path d="M23.8877 30.6699C23.8877 29.7954 24.6019 29.0885 25.4691 29.0958C26.3291 29.103 27.0214 29.81 27.0214 30.6772C27.0214 31.5517 26.2999 32.2586 25.4327 32.2513C24.58 32.2367 23.8877 31.5371 23.8877 30.6699Z" fill="white"/>
<path d="M38.0175 30.6626C38.0175 31.5371 37.3179 32.244 36.4434 32.244C35.5834 32.244 34.8838 31.5371 34.8838 30.6772C34.8838 29.8027 35.5834 29.0885 36.4579 29.0958C37.3179 29.103 38.0175 29.8027 38.0175 30.6626Z" fill="white"/>
</svg>
