<svg width="14" height="14" viewBox="0 0 14 14" fill="none" xmlns="http://www.w3.org/2000/svg">
<g clip-path="url(#clip0_131_24830)">
<path d="M11.1563 13.126H5.03125C4.50911 13.126 4.00835 12.9186 3.63913 12.5493C3.26992 12.1801 3.0625 11.6794 3.0625 11.1572V5.03223C3.0625 4.51008 3.26992 4.00932 3.63913 3.64011C4.00835 3.2709 4.50911 3.06348 5.03125 3.06348H11.1563C11.6784 3.06348 12.1792 3.2709 12.5484 3.64011C12.9176 4.00932 13.125 4.51008 13.125 5.03223V11.1572C13.125 11.6794 12.9176 12.1801 12.5484 12.5493C12.1792 12.9186 11.6784 13.126 11.1563 13.126Z" fill="white"/>
<path d="M4.375 2.18848H10.8248C10.6887 1.80491 10.4373 1.47286 10.1049 1.23787C9.77263 1.00288 9.37575 0.876468 8.96875 0.875977H2.84375C2.3216 0.875977 1.82085 1.0834 1.45163 1.45261C1.08242 1.82182 0.875 2.32258 0.875 2.84473V8.96973C0.875491 9.37673 1.0019 9.77361 1.23689 10.1059C1.47188 10.4382 1.80393 10.6897 2.1875 10.8258V4.37598C2.1875 3.79582 2.41797 3.23942 2.8282 2.82918C3.23844 2.41894 3.79484 2.18848 4.375 2.18848Z" fill="white"/>
</g>
<defs>
<clipPath id="clip0_131_24830">
<rect width="14" height="14" fill="white"/>
</clipPath>
</defs>
</svg>
