<svg width="345" height="355" viewBox="0 0 345 355" fill="none" xmlns="http://www.w3.org/2000/svg">
<path d="M59.6405 284L52.0932 278.803C52.0932 278.803 47.7338 285.143 41.074 280.727C39.7752 279.899 38.7664 278.687 38.1875 277.259C37.6086 275.832 37.4884 274.26 37.8435 272.761C38.125 271.497 38.7014 270.318 39.5257 269.32C40.35 268.322 41.3987 267.532 42.5863 267.017C45.3127 265.789 49.4378 265.803 53.9108 270.198L65.6116 253.158L58.1495 248.024L51.298 257.964C51.298 257.964 38.9724 253.47 31.0346 265.001C23.4447 276.034 31.5742 285.406 35.8129 288.317C39.0505 290.596 50.588 297.405 59.6405 284Z" fill="#EBEBEB"/>
<path d="M60.437 244.484L68.0059 249.691L72.8715 242.62L65.3027 237.412L60.437 244.484Z" fill="#EBEBEB"/>
<path d="M91.7755 304.867L95.7799 303.809C95.6609 303.353 95.6338 302.878 95.7001 302.412C95.7663 301.946 95.9247 301.498 96.1658 301.093C96.407 300.689 96.7262 300.337 97.1048 300.057C97.4835 299.777 97.914 299.575 98.3714 299.464C99.0385 299.261 99.7523 299.271 100.413 299.494C101.074 299.717 101.648 300.141 102.056 300.706C102.407 301.174 102.642 301.719 102.742 302.295C102.842 302.871 102.804 303.463 102.631 304.022C102.248 305.321 101.027 306.734 98.201 306.968L100.58 316.007L104.541 314.963L103.121 309.666C104.619 308.758 105.778 307.383 106.419 305.753C107.06 304.123 107.149 302.327 106.671 300.642C105.124 294.785 99.5074 294.806 97.2638 295.402C95.5811 295.857 89.8372 297.816 91.7755 304.867Z" fill="#EBEBEB"/>
<path d="M105.1 316.798L101.077 317.859L102.068 321.615L106.091 320.553L105.1 316.798Z" fill="#EBEBEB"/>
<path d="M158.33 51.8797C160.356 50.6455 162.539 49.6902 164.82 49.0397L166.154 42.6497L177.01 42.458L178.572 48.848C180.875 49.4121 183.091 50.2837 185.161 51.4395L190.649 47.8398L198.459 55.38L195.059 60.989C196.288 63.0193 197.243 65.2039 197.899 67.4855L204.324 68.8203L204.509 79.6762L198.119 81.2382C197.551 83.5399 196.68 85.7556 195.527 87.827L199.12 93.3153L191.58 101.125L185.971 97.7244C183.943 98.9587 181.757 99.9139 179.474 100.564L178.139 106.997L167.283 107.182L165.721 100.792C163.418 100.231 161.201 99.3589 159.133 98.2001L153.644 101.8L145.834 94.2596L149.235 88.6506C148.001 86.6225 147.046 84.4374 146.395 82.1541L140.005 80.8193L139.813 69.9634L146.203 68.4014C146.757 66.0851 147.622 63.8544 148.774 61.77L145.174 56.2817L152.714 48.4717L158.33 51.8797ZM164.117 66.3424C162.52 68.0015 161.45 70.0969 161.044 72.3637C160.638 74.6305 160.913 76.9669 161.834 79.0774C162.756 81.1879 164.283 82.9777 166.221 84.2206C168.16 85.4634 170.424 86.1035 172.726 86.0598C175.029 86.0161 177.267 85.2906 179.157 83.9751C181.047 82.6596 182.505 80.8132 183.346 78.6692C184.186 76.5253 184.373 74.1802 183.881 71.9304C183.389 69.6807 182.241 67.6273 180.582 66.03C178.356 63.8897 175.372 62.7204 172.285 62.7789C169.197 62.8375 166.26 64.1192 164.117 66.3424Z" fill="#F5F5F5"/>
<path d="M112.89 29.245C114.06 28.5422 115.318 27.9979 116.632 27.6262L117.399 23.92L123.654 23.8135L124.555 27.4842C125.881 27.8082 127.156 28.3098 128.347 28.9752L131.506 26.902L135.979 31.2401L134.02 34.4706C134.726 35.6396 135.273 36.898 135.646 38.2123L139.345 38.9791L139.451 45.2342L135.781 46.1501C135.458 47.4756 134.956 48.7511 134.29 49.9415L136.363 53.101L132.018 57.6024L128.787 55.6428C127.618 56.3494 126.36 56.8962 125.045 57.2687L124.25 60.9607L117.995 61.0743L117.15 57.4036C115.826 57.0739 114.551 56.5701 113.359 55.9055L110.199 57.9787L105.698 53.6335L107.629 50.4101C106.921 49.2442 106.374 47.9879 106.003 46.6755L102.304 45.9016L102.19 39.6465L105.868 38.7519C106.191 37.4241 106.693 36.1462 107.359 34.9534L105.286 31.7939L109.631 27.2996L112.89 29.245ZM116.22 37.5804C115.294 38.5335 114.671 39.7403 114.431 41.0478C114.192 42.3553 114.346 43.7044 114.874 44.9241C115.403 46.1439 116.281 47.1792 117.399 47.8987C118.517 48.6182 119.823 48.9895 121.152 48.9656C122.481 48.9416 123.773 48.5234 124.864 47.7641C125.955 47.0047 126.796 45.9384 127.28 44.7005C127.764 43.4625 127.869 42.1086 127.583 40.8106C127.296 39.5127 126.63 38.3291 125.67 37.41C124.39 36.1772 122.673 35.5027 120.896 35.5346C119.119 35.5666 117.427 36.3023 116.192 37.5804H116.22Z" fill="#EBEBEB"/>
<path d="M312.451 145.345C313.618 144.64 314.874 144.093 316.185 143.719L316.959 140.02L323.207 139.913L324.109 143.584C325.437 143.907 326.714 144.408 327.907 145.075L331.067 143.002L335.561 147.347L333.601 150.577C334.308 151.746 334.855 153.005 335.227 154.319L338.934 155.086L339.04 161.341L335.369 162.243C335.039 163.566 334.538 164.84 333.878 166.034L335.944 169.193L331.606 173.695L328.376 171.735C327.207 172.442 325.948 172.989 324.634 173.361L323.86 177.06L317.612 177.174L316.711 173.496C315.385 173.173 314.11 172.672 312.919 172.005L309.753 174.078L305.258 169.733L307.218 166.503C306.51 165.334 305.963 164.076 305.592 162.761L301.893 161.994L301.779 155.739L305.45 154.837C305.78 153.514 306.282 152.24 306.941 151.046L304.875 147.886L309.213 143.385L312.451 145.345ZM315.78 153.673C314.858 154.627 314.24 155.833 314.003 157.139C313.766 158.445 313.922 159.792 314.451 161.009C314.98 162.226 315.858 163.259 316.974 163.978C318.09 164.696 319.394 165.067 320.72 165.044C322.047 165.021 323.338 164.606 324.428 163.849C325.519 163.093 326.361 162.03 326.847 160.796C327.334 159.561 327.443 158.21 327.162 156.913C326.88 155.616 326.221 154.432 325.266 153.51C323.986 152.275 322.268 151.6 320.49 151.63C318.711 151.661 317.018 152.395 315.78 153.673Z" fill="#EBEBEB"/>
<path d="M329.284 330.371C329.284 330.478 261.955 330.556 178.928 330.556C95.9001 330.556 28.5566 330.478 28.5566 330.371C28.5566 330.265 95.8646 330.187 178.928 330.187C261.99 330.187 329.284 330.272 329.284 330.371Z" fill="#263238"/>
<path d="M296.538 329.852L195.718 329.795C189.894 329.791 184.31 327.475 180.194 323.356C176.077 319.237 173.765 313.651 173.765 307.828L173.814 55.0677C173.828 49.2389 176.152 43.6534 180.278 39.5364C184.405 35.4195 189.996 33.1074 195.824 33.1074L296.644 33.1713C302.468 33.1751 308.052 35.4912 312.168 39.6104C316.285 43.7297 318.598 49.3151 318.598 55.1387L318.548 307.899C318.548 310.786 317.978 313.646 316.871 316.313C315.765 318.98 314.142 321.403 312.098 323.442C310.053 325.481 307.626 327.097 304.956 328.197C302.286 329.297 299.426 329.859 296.538 329.852Z" fill="#455A64"/>
<path d="M296.502 42.082H276.956C275.667 42.1118 274.443 42.652 273.553 43.584C272.662 44.5159 272.178 45.7633 272.206 47.052V50.602C272.235 51.8908 271.751 53.1382 270.86 54.0701C269.969 55.002 268.745 55.5422 267.456 55.572H229.351C228.063 55.5404 226.841 54.9994 225.952 54.0677C225.063 53.1359 224.579 51.8896 224.608 50.602V47.052C224.636 45.7633 224.152 44.5159 223.262 43.584C222.371 42.652 221.147 42.1118 219.858 42.082H195.874C191.803 42.0783 187.896 43.689 185.011 46.5612C182.125 49.4334 180.496 53.3326 180.481 57.4038L180.432 304.143C180.439 308.217 182.062 312.122 184.946 315.002C187.829 317.881 191.736 319.498 195.81 319.5L296.439 319.557C298.459 319.558 300.46 319.161 302.327 318.389C304.194 317.616 305.891 316.484 307.32 315.056C308.749 313.628 309.883 311.932 310.657 310.066C311.432 308.2 311.83 306.199 311.831 304.179L311.874 57.4393C311.868 53.3656 310.247 49.4605 307.365 46.5813C304.483 43.7021 300.576 42.0839 296.502 42.082Z" fill="white"/>
<path d="M311.867 93.9404V57.1837C311.794 53.1557 310.144 49.317 307.271 46.493C304.398 43.6689 300.531 42.0851 296.503 42.082H276.956C276.318 42.0959 275.688 42.2355 275.104 42.4928C274.52 42.7502 273.992 43.1203 273.551 43.5819C273.109 44.0436 272.764 44.5877 272.533 45.1831C272.302 45.7786 272.191 46.4137 272.206 47.052V50.602C272.235 51.8908 271.751 53.1382 270.86 54.0701C269.969 55.002 268.745 55.5422 267.456 55.572H229.351C228.063 55.5404 226.841 54.9994 225.952 54.0677C225.063 53.1359 224.579 51.8896 224.608 50.602V47.052C224.637 45.7633 224.152 44.5159 223.262 43.584C222.371 42.652 221.147 42.1118 219.858 42.082H195.874C191.803 42.0783 187.896 43.689 185.011 46.5612C182.125 49.4334 180.496 53.3326 180.481 57.4038V94.054H311.867V93.9404Z" fill="#EBEBEB"/>
<path d="M207.277 143.796C216.072 143.796 223.202 136.682 223.202 127.906C223.202 119.131 216.072 112.017 207.277 112.017C198.482 112.017 191.352 119.131 191.352 127.906C191.352 136.682 198.482 143.796 207.277 143.796Z" fill="#E0E0E0"/>
<path d="M199.836 131.883L204.011 131.528L214.192 133.247L215.392 140.907L215.222 141.802C212.928 143.096 210.351 143.805 207.718 143.866C205.085 143.927 202.478 143.337 200.127 142.15L199.836 131.883Z" fill="#455A64"/>
<path d="M212.012 133.125C213.021 132.978 214.052 133.117 214.986 133.528C215.92 133.939 216.72 134.604 217.294 135.447C217.984 136.41 218.617 137.413 219.19 138.45C217.528 140.254 216.179 141.624 213.879 142.426L212.012 133.125Z" fill="#455A64"/>
<path d="M199.836 131.883C199.836 131.883 197.082 132.224 196.017 134.574C194.952 136.924 194.703 137.655 194.703 137.655C196.123 139.373 197.941 141.404 200.163 142.164C200.163 142.164 200.667 136.242 200.731 134.574C200.809 132.77 200.88 131.833 199.836 131.883Z" fill="#455A64"/>
<path d="M202.349 116.83C203.043 115.942 203.928 115.22 204.938 114.718C205.948 114.217 207.058 113.949 208.186 113.934C209.155 113.933 210.117 114.107 211.026 114.445C211.982 114.671 212.828 115.23 213.411 116.021C214.135 116.951 214.609 118.051 214.789 119.216C214.955 120.408 215.012 121.613 214.959 122.816C214.901 124.027 214.51 125.199 213.83 126.202L210.77 126.728C209.083 126.862 207.385 126.772 205.722 126.458C204.04 126.135 202.555 125.16 201.59 123.746C200.361 121.751 200.873 118.648 202.349 116.83Z" fill="#263238"/>
<path d="M199.396 125.669C199.427 125.323 199.536 124.989 199.716 124.691C199.896 124.393 200.141 124.14 200.432 123.951C200.731 123.772 201.079 123.692 201.426 123.722C201.773 123.753 202.101 123.893 202.363 124.122L202.846 124.69C203.219 124.862 203.528 125.146 203.732 125.502C203.936 125.858 204.023 126.269 203.982 126.678C203.929 127.086 203.759 127.471 203.492 127.785C203.225 128.098 202.872 128.328 202.477 128.446C202.082 128.558 201.665 128.566 201.266 128.47C200.867 128.375 200.499 128.178 200.198 127.899C199.903 127.613 199.677 127.264 199.537 126.877C199.398 126.491 199.35 126.078 199.396 125.669Z" fill="#263238"/>
<path d="M199.999 127.757C199.884 127.578 199.827 127.367 199.836 127.154C199.938 126.637 200.184 126.16 200.546 125.776C200.889 125.374 201.306 125.041 201.774 124.797C202.129 124.605 202.378 124.534 202.371 124.513C202.144 124.529 201.923 124.595 201.724 124.704C201.224 124.927 200.782 125.262 200.432 125.684C200.236 125.898 200.069 126.137 199.935 126.394C199.819 126.614 199.751 126.856 199.736 127.104C199.733 127.275 199.78 127.443 199.871 127.587C199.935 127.729 199.999 127.8 199.999 127.757Z" fill="#455A64"/>
<path d="M210.741 132.578V129.738C210.741 129.738 213.233 129.462 213.929 126.267C214.256 124.153 214.384 122.014 214.312 119.877C214.312 117.938 212.644 115.297 210.244 115.29L209.179 115.162L205.096 116.781C204.813 116.797 204.545 116.917 204.346 117.119C204.146 117.321 204.029 117.591 204.017 117.874L203.896 131.513L205.764 134.133C206.106 134.596 206.584 134.94 207.131 135.117C207.678 135.294 208.268 135.296 208.816 135.121C209.364 134.947 209.844 134.605 210.188 134.144C210.532 133.682 210.723 133.125 210.734 132.55L210.741 132.578Z" fill="#FFBE9D"/>
<path d="M209.115 125.528C209.137 125.364 209.221 125.214 209.35 125.109C209.466 125.011 209.612 124.954 209.764 124.945C209.916 124.936 210.067 124.976 210.194 125.059C210.325 125.161 210.426 125.295 210.489 125.449C210.551 125.602 210.572 125.769 210.549 125.933C210.478 126.031 210.387 126.114 210.282 126.175C210.177 126.236 210.06 126.275 209.939 126.288H209.825C209.731 126.29 209.637 126.274 209.55 126.24C209.462 126.206 209.382 126.154 209.314 126.089C209.242 126.015 209.187 125.927 209.153 125.83C209.119 125.733 209.106 125.63 209.115 125.528Z" fill="#EB996E"/>
<path d="M212.829 122.12C212.825 122.228 212.779 122.33 212.701 122.405C212.622 122.479 212.518 122.52 212.41 122.518C212.357 122.519 212.304 122.509 212.254 122.49C212.205 122.47 212.16 122.441 212.122 122.404C212.083 122.368 212.053 122.323 212.032 122.275C212.01 122.226 211.999 122.173 211.998 122.12C212.004 122.012 212.051 121.91 212.131 121.835C212.21 121.761 212.315 121.721 212.424 121.723C212.477 121.722 212.529 121.731 212.578 121.751C212.627 121.77 212.672 121.8 212.71 121.837C212.747 121.874 212.777 121.918 212.798 121.967C212.818 122.015 212.829 122.068 212.829 122.12Z" fill="#263238"/>
<path d="M213.51 121.098C213.453 121.147 213.148 120.899 212.707 120.878C212.267 120.856 211.919 121.062 211.877 121.005C211.834 120.949 211.912 120.885 212.061 120.785C212.263 120.665 212.495 120.609 212.729 120.622C212.96 120.631 213.182 120.716 213.361 120.863C213.488 120.977 213.531 121.076 213.51 121.098Z" fill="#263238"/>
<path d="M210.706 124.463C210.939 124.409 211.177 124.38 211.416 124.378C211.529 124.378 211.643 124.378 211.664 124.279C211.68 124.162 211.661 124.043 211.608 123.938L211.316 123.057C211.045 122.306 210.834 121.535 210.685 120.75C211.016 121.477 211.29 122.23 211.501 123.001C211.6 123.306 211.686 123.604 211.778 123.888C211.838 124.03 211.85 124.186 211.813 124.335C211.77 124.412 211.699 124.468 211.615 124.492C211.551 124.498 211.487 124.498 211.423 124.492C211.184 124.515 210.943 124.505 210.706 124.463Z" fill="#263238"/>
<path d="M210.727 129.745C209.202 129.677 207.727 129.185 206.467 128.325C206.467 128.325 207.496 130.618 210.727 130.498V129.745Z" fill="#EB996E"/>
<path d="M209.378 124.705C209.456 124.705 209.427 125.188 209.825 125.55C210.223 125.912 210.734 125.891 210.734 125.955C210.734 126.019 210.613 126.047 210.4 126.04C210.116 126.027 209.845 125.917 209.633 125.728C209.433 125.543 209.311 125.289 209.293 125.018C209.285 124.812 209.349 124.698 209.378 124.705Z" fill="#263238"/>
<path d="M213.418 119.422C213.34 119.529 212.999 119.422 212.602 119.422C212.204 119.422 211.892 119.522 211.785 119.422C211.679 119.323 211.785 119.266 211.941 119.167C212.137 119.044 212.363 118.977 212.595 118.975C212.827 118.969 213.057 119.031 213.255 119.153C213.404 119.28 213.454 119.373 213.418 119.422Z" fill="#263238"/>
<path d="M207.944 122.12C207.942 122.229 207.983 122.334 208.057 122.414C208.131 122.493 208.233 122.541 208.342 122.546C208.395 122.551 208.448 122.545 208.499 122.529C208.549 122.513 208.596 122.487 208.636 122.453C208.677 122.419 208.71 122.377 208.734 122.329C208.757 122.282 208.772 122.23 208.775 122.177C208.775 122.07 208.734 121.966 208.66 121.888C208.586 121.81 208.485 121.764 208.377 121.758C208.325 121.752 208.272 121.757 208.221 121.772C208.171 121.788 208.124 121.813 208.084 121.847C208.043 121.881 208.01 121.922 207.986 121.969C207.962 122.016 207.948 122.068 207.944 122.12Z" fill="#263238"/>
<path d="M207.404 120.942C207.454 120.999 207.773 120.771 208.221 120.779C208.668 120.786 208.987 121.013 209.037 120.963C209.087 120.913 209.037 120.842 208.867 120.736C208.677 120.597 208.448 120.522 208.214 120.523C207.983 120.516 207.757 120.583 207.567 120.715C207.425 120.821 207.376 120.913 207.404 120.942Z" fill="#263238"/>
<path d="M207.148 119.99C207.234 120.097 207.582 119.99 207.993 119.99C208.405 119.99 208.753 120.075 208.838 119.99C208.923 119.905 208.838 119.834 208.668 119.735C208.461 119.614 208.226 119.55 207.986 119.55C207.747 119.55 207.511 119.614 207.305 119.735C207.156 119.834 207.106 119.933 207.148 119.99Z" fill="#263238"/>
<path d="M204.557 123.321C204.557 123.079 204.329 122.497 204.088 122.447C203.463 122.312 202.32 122.305 202.221 123.91C202.086 126.104 204.351 125.784 204.351 125.72C204.351 125.657 204.514 124.144 204.557 123.321Z" fill="#FFBE9D"/>
<path d="M203.769 124.882C203.769 124.882 203.734 124.882 203.663 124.932C203.618 124.951 203.57 124.961 203.521 124.961C203.472 124.961 203.424 124.951 203.379 124.932C203.241 124.833 203.133 124.699 203.064 124.545C202.995 124.39 202.969 124.22 202.988 124.051C202.997 123.864 203.045 123.68 203.13 123.512C203.156 123.445 203.197 123.385 203.25 123.337C203.303 123.289 203.367 123.254 203.436 123.235C203.481 123.225 203.528 123.232 203.568 123.254C203.609 123.276 203.64 123.312 203.656 123.356C203.661 123.391 203.661 123.427 203.656 123.462C203.656 123.462 203.706 123.462 203.691 123.341C203.682 123.287 203.655 123.236 203.613 123.199C203.586 123.173 203.554 123.153 203.518 123.141C203.483 123.129 203.445 123.124 203.407 123.128C203.317 123.14 203.23 123.175 203.157 123.23C203.084 123.284 203.026 123.357 202.988 123.441C202.883 123.625 202.825 123.832 202.818 124.044C202.794 124.24 202.828 124.438 202.917 124.613C203.005 124.789 203.144 124.934 203.315 125.031C203.373 125.051 203.435 125.058 203.496 125.052C203.558 125.046 203.617 125.027 203.67 124.996C203.769 124.96 203.769 124.889 203.769 124.882Z" fill="#EB996E"/>
<path d="M204.003 122.453L204.557 123.028C206.971 120.728 211.692 114.956 211.43 115.296C210.328 114.89 209.142 114.763 207.979 114.927C206.183 115.232 202.782 116.127 202.832 118.236C202.937 119.706 203.336 121.139 204.003 122.453Z" fill="#263238"/>
<path d="M200.809 121.971C200.809 121.971 200.809 121.921 200.809 121.843C200.85 121.724 200.9 121.608 200.958 121.495C201.186 121.088 201.501 120.737 201.881 120.466C202.443 120.065 203.07 119.762 203.734 119.571C204.444 119.337 205.296 119.152 206.112 118.804C207.509 118.214 208.771 117.345 209.818 116.248C210.134 115.915 210.43 115.564 210.706 115.198L210.926 114.892C210.95 114.856 210.979 114.822 211.011 114.793L210.947 114.907C210.898 114.978 210.834 115.091 210.742 115.226C210.477 115.604 210.187 115.965 209.875 116.305C209.409 116.807 208.895 117.264 208.342 117.668C207.665 118.166 206.931 118.581 206.155 118.904C205.372 119.204 204.573 119.46 203.762 119.671C203.108 119.853 202.489 120.144 201.93 120.53C201.554 120.789 201.237 121.125 201 121.517C200.925 121.663 200.861 121.815 200.809 121.971Z" fill="#455A64"/>
<path d="M201.448 122.312C201.443 122.149 201.472 121.987 201.533 121.837C201.697 121.416 201.984 121.055 202.357 120.8C202.916 120.443 203.541 120.201 204.196 120.09C204.98 119.94 205.744 119.702 206.475 119.38C207.201 119.05 207.883 118.63 208.505 118.13C209.021 117.72 209.497 117.261 209.925 116.76C210.207 116.423 210.466 116.067 210.699 115.695C210.777 115.574 210.841 115.468 210.884 115.39C210.906 115.351 210.932 115.316 210.962 115.283C210.947 115.323 210.928 115.361 210.905 115.397L210.735 115.716C210.517 116.102 210.265 116.468 209.982 116.81C209.563 117.334 209.086 117.81 208.562 118.23C207.934 118.74 207.245 119.169 206.51 119.508C205.771 119.833 204.997 120.071 204.203 120.218C203.56 120.338 202.946 120.579 202.392 120.928C202.024 121.168 201.735 121.511 201.562 121.915C201.512 122.044 201.474 122.177 201.448 122.312Z" fill="#455A64"/>
<path d="M200.162 142.149C200.058 140.75 200.058 139.345 200.162 137.946C200.257 139.346 200.257 140.75 200.162 142.149Z" fill="#263238"/>
<path d="M215.229 141.851C215.211 141.615 215.211 141.378 215.229 141.141C215.272 140.549 215.25 139.954 215.165 139.366C215.055 138.78 214.883 138.206 214.654 137.655C214.547 137.427 214.461 137.19 214.398 136.945C214.537 137.153 214.654 137.374 214.746 137.606C215.009 138.153 215.198 138.733 215.307 139.331C215.392 139.931 215.392 140.541 215.307 141.141C215.311 141.38 215.285 141.619 215.229 141.851Z" fill="#263238"/>
<path d="M291.866 148.085H237.587C236.294 148.083 235.054 147.569 234.14 146.654C233.225 145.74 232.711 144.5 232.709 143.207V120.416L226.724 115.106H291.866C292.51 115.101 293.149 115.224 293.745 115.467C294.342 115.711 294.884 116.07 295.341 116.524C295.797 116.978 296.16 117.518 296.407 118.113C296.654 118.708 296.78 119.346 296.779 119.99V143.207C296.778 143.851 296.65 144.487 296.403 145.081C296.155 145.675 295.793 146.214 295.336 146.667C294.88 147.12 294.338 147.479 293.743 147.722C293.147 147.965 292.509 148.089 291.866 148.085Z" fill="#EBEBEB"/>
<path d="M288.146 151.777C286.22 151.96 284.285 152.022 282.352 151.962C280.421 152.021 278.488 151.96 276.565 151.777C278.488 151.594 280.421 151.533 282.352 151.592C284.285 151.533 286.22 151.594 288.146 151.777Z" fill="#E0E0E0"/>
<path d="M290.539 152.232C290.515 152.231 290.491 152.226 290.469 152.216C290.447 152.207 290.427 152.192 290.411 152.175L289.289 151.003C289.257 150.97 289.238 150.926 289.238 150.879C289.238 150.833 289.257 150.788 289.289 150.755C289.305 150.738 289.324 150.724 289.346 150.715C289.367 150.706 289.39 150.701 289.413 150.701C289.437 150.701 289.46 150.706 289.481 150.715C289.502 150.724 289.522 150.738 289.538 150.755L290.532 151.791L292.711 149.576C292.727 149.559 292.746 149.546 292.768 149.536C292.789 149.527 292.812 149.522 292.835 149.522C292.859 149.522 292.882 149.527 292.903 149.536C292.925 149.546 292.944 149.559 292.96 149.576C292.992 149.609 293.01 149.654 293.01 149.701C293.01 149.747 292.992 149.792 292.96 149.825L290.652 152.175C290.621 152.205 290.582 152.225 290.539 152.232Z" fill="#5532FA"/>
<path d="M292.136 152.196H291.93C291.883 152.196 291.838 152.177 291.805 152.144C291.772 152.111 291.753 152.065 291.753 152.018C291.758 151.972 291.779 151.928 291.813 151.896C291.847 151.863 291.891 151.844 291.938 151.841H292.065L294.316 149.547C294.333 149.53 294.352 149.517 294.374 149.507C294.396 149.498 294.42 149.493 294.444 149.493C294.468 149.493 294.491 149.498 294.513 149.507C294.535 149.517 294.555 149.53 294.572 149.547C294.604 149.581 294.622 149.625 294.622 149.672C294.622 149.718 294.604 149.763 294.572 149.796L292.264 152.139C292.248 152.157 292.229 152.172 292.207 152.182C292.185 152.192 292.16 152.196 292.136 152.196Z" fill="#5532FA"/>
<path d="M288.146 241.003C286.22 241.186 284.285 241.247 282.352 241.187C280.421 241.247 278.488 241.185 276.565 241.003C278.488 240.82 280.421 240.758 282.352 240.818C284.285 240.758 286.22 240.82 288.146 241.003Z" fill="#E0E0E0"/>
<path d="M290.538 241.457C290.51 241.46 290.482 241.456 290.456 241.446C290.43 241.436 290.407 241.421 290.389 241.4L289.267 240.229C289.247 240.213 289.231 240.193 289.219 240.17C289.208 240.148 289.201 240.123 289.2 240.097C289.199 240.072 289.204 240.047 289.213 240.023C289.223 240 289.237 239.978 289.256 239.961C289.274 239.944 289.296 239.93 289.32 239.922C289.344 239.914 289.37 239.911 289.395 239.913C289.42 239.916 289.445 239.924 289.467 239.937C289.489 239.949 289.508 239.967 289.522 239.987L290.516 241.024L292.696 238.809C292.712 238.792 292.731 238.778 292.753 238.769C292.774 238.76 292.797 238.755 292.82 238.755C292.844 238.755 292.867 238.76 292.888 238.769C292.909 238.778 292.929 238.792 292.945 238.809C292.977 238.842 292.995 238.886 292.995 238.933C292.995 238.979 292.977 239.024 292.945 239.057L290.665 241.4C290.631 241.433 290.586 241.454 290.538 241.457Z" fill="#5532FA"/>
<path d="M292.136 241.401H291.93C291.883 241.399 291.838 241.379 291.804 241.344C291.771 241.31 291.753 241.264 291.753 241.216C291.753 241.193 291.758 241.169 291.767 241.148C291.777 241.126 291.79 241.106 291.808 241.09C291.825 241.074 291.846 241.062 291.868 241.055C291.89 241.047 291.914 241.044 291.938 241.046H292.065L294.316 238.753C294.333 238.735 294.352 238.722 294.374 238.712C294.396 238.703 294.42 238.698 294.444 238.698C294.468 238.698 294.491 238.703 294.513 238.712C294.535 238.722 294.555 238.735 294.572 238.753C294.604 238.786 294.622 238.83 294.622 238.877C294.622 238.923 294.604 238.968 294.572 239.001L292.264 241.344C292.248 241.362 292.229 241.377 292.207 241.387C292.185 241.397 292.16 241.401 292.136 241.401Z" fill="#5532FA"/>
<path d="M291.17 121.63C291.17 121.729 279.32 121.815 264.701 121.815C250.082 121.815 238.239 121.729 238.239 121.63C238.239 121.531 250.082 121.445 264.701 121.445C279.32 121.445 291.17 121.523 291.17 121.63Z" fill="white"/>
<path d="M291.17 125.514C291.17 125.62 279.32 125.698 264.701 125.698C250.082 125.698 238.239 125.62 238.239 125.514C238.239 125.407 250.082 125.329 264.701 125.329C279.32 125.329 291.17 125.414 291.17 125.514Z" fill="white"/>
<path d="M291.17 129.404C291.17 129.504 279.32 129.589 264.701 129.589C250.082 129.589 238.239 129.504 238.239 129.404C238.239 129.305 250.082 129.22 264.701 129.22C279.32 129.22 291.17 129.305 291.17 129.404Z" fill="white"/>
<path d="M207.277 242.891C216.072 242.891 223.202 235.777 223.202 227.001C223.202 218.225 216.072 211.111 207.277 211.111C198.482 211.111 191.352 218.225 191.352 227.001C191.352 235.777 198.482 242.891 207.277 242.891Z" fill="#E0E0E0"/>
<path d="M199.836 230.977L204.011 230.622L214.192 232.34L215.392 239.98L215.222 240.867C212.929 242.164 210.351 242.874 207.718 242.934C205.085 242.995 202.477 242.404 200.127 241.215L199.836 230.956" fill="#455A64"/>
<path d="M212.012 232.212C213.021 232.066 214.051 232.207 214.985 232.617C215.919 233.028 216.719 233.692 217.294 234.534C217.985 235.499 218.618 236.504 219.19 237.544C217.528 239.348 216.179 240.718 213.879 241.513L212.012 232.212Z" fill="#455A64"/>
<path d="M199.836 230.977C199.836 230.977 197.082 231.311 196.017 233.661C194.952 236.011 194.703 236.749 194.703 236.749C196.123 238.461 197.941 240.491 200.163 241.251C200.163 241.251 200.667 235.337 200.731 233.661C200.809 231.829 200.88 230.92 199.836 230.977Z" fill="#455A64"/>
<path d="M202.349 215.925C203.042 215.035 203.927 214.313 204.937 213.811C205.947 213.31 207.058 213.042 208.186 213.028C209.155 213.023 210.117 213.194 211.026 213.533C211.98 213.764 212.824 214.322 213.411 215.109C214.134 216.04 214.608 217.139 214.789 218.304C214.955 219.498 215.012 220.706 214.959 221.911C214.902 223.12 214.511 224.29 213.83 225.29L210.77 225.823C209.083 225.954 207.386 225.863 205.722 225.553C204.04 225.23 202.555 224.255 201.59 222.841C200.361 220.81 200.873 217.736 202.349 215.925Z" fill="#263238"/>
<path d="M199.396 224.793C199.426 224.447 199.535 224.112 199.715 223.814C199.894 223.516 200.14 223.263 200.432 223.075C200.73 222.893 201.077 222.811 201.425 222.841C201.772 222.87 202.101 223.009 202.363 223.238L202.846 223.813C203.219 223.985 203.53 224.268 203.733 224.625C203.937 224.981 204.024 225.393 203.982 225.801C203.924 226.208 203.752 226.59 203.486 226.903C203.219 227.216 202.869 227.447 202.477 227.569C202.081 227.68 201.664 227.687 201.265 227.59C200.866 227.493 200.499 227.295 200.198 227.015C199.903 226.731 199.677 226.383 199.538 225.998C199.398 225.612 199.35 225.2 199.396 224.793Z" fill="#263238"/>
<path d="M199.999 226.852C199.885 226.67 199.829 226.457 199.836 226.242C199.938 225.727 200.184 225.252 200.546 224.871C200.887 224.467 201.304 224.134 201.774 223.892C202.129 223.7 202.378 223.629 202.371 223.601C202.145 223.621 201.925 223.687 201.724 223.792C201.227 224.019 200.785 224.354 200.432 224.772C200.235 225.001 200.068 225.254 199.935 225.525C199.818 225.744 199.75 225.986 199.736 226.235C199.734 226.405 199.781 226.573 199.871 226.717C199.935 226.824 199.999 226.859 199.999 226.852Z" fill="#455A64"/>
<path d="M210.756 231.929V229.089C210.756 229.089 213.248 228.813 213.943 225.625C214.27 223.511 214.398 221.372 214.327 219.235C214.327 217.296 212.658 214.655 210.259 214.648L209.194 214.527L205.111 216.146C204.827 216.16 204.558 216.28 204.359 216.483C204.159 216.685 204.042 216.955 204.032 217.24L203.911 230.872L205.778 233.491C206.12 233.954 206.598 234.298 207.146 234.475C207.693 234.653 208.282 234.654 208.83 234.479C209.379 234.305 209.858 233.963 210.202 233.502C210.546 233.041 210.737 232.483 210.748 231.908L210.756 231.929Z" fill="#FFBE9D"/>
<path d="M209.115 224.623C209.137 224.458 209.221 224.309 209.349 224.204C209.466 224.106 209.612 224.048 209.764 224.039C209.916 224.03 210.067 224.071 210.194 224.154C210.325 224.256 210.426 224.39 210.489 224.543C210.551 224.697 210.572 224.864 210.549 225.027C210.478 225.125 210.386 225.207 210.281 225.267C210.176 225.327 210.059 225.364 209.939 225.375H209.825C209.635 225.371 209.454 225.298 209.314 225.169C209.241 225.1 209.186 225.014 209.151 224.919C209.117 224.824 209.104 224.723 209.115 224.623Z" fill="#EB996E"/>
<path d="M212.829 221.52C212.816 221.621 212.766 221.713 212.69 221.78C212.613 221.847 212.515 221.884 212.413 221.884C212.312 221.884 212.214 221.847 212.137 221.78C212.061 221.713 212.011 221.621 211.998 221.52C212.004 221.411 212.051 221.309 212.131 221.235C212.21 221.161 212.315 221.12 212.424 221.122C212.477 221.121 212.529 221.131 212.578 221.15C212.627 221.17 212.672 221.199 212.71 221.236C212.747 221.273 212.777 221.317 212.798 221.366C212.818 221.415 212.829 221.467 212.829 221.52Z" fill="#263238"/>
<path d="M213.51 220.462C213.453 220.512 213.148 220.263 212.707 220.242C212.267 220.221 211.919 220.42 211.877 220.363C211.834 220.306 211.912 220.242 212.061 220.15C212.26 220.024 212.494 219.966 212.729 219.986C212.96 219.996 213.182 220.08 213.361 220.228C213.488 220.341 213.531 220.441 213.51 220.462Z" fill="#263238"/>
<path d="M210.706 223.828C210.939 223.772 211.177 223.741 211.416 223.735C211.529 223.735 211.643 223.735 211.664 223.636C211.68 223.519 211.66 223.4 211.608 223.295C211.515 223.018 211.416 222.727 211.316 222.415C211.047 221.665 210.835 220.896 210.685 220.114C211.017 220.839 211.29 221.589 211.501 222.358C211.6 222.67 211.686 222.961 211.778 223.245C211.838 223.387 211.85 223.544 211.813 223.693C211.794 223.732 211.766 223.766 211.732 223.793C211.697 223.821 211.657 223.839 211.615 223.849C211.551 223.859 211.487 223.859 211.423 223.849C211.184 223.874 210.943 223.867 210.706 223.828Z" fill="#263238"/>
<path d="M210.727 229.103C209.206 229.044 207.732 228.565 206.467 227.719C206.467 227.719 207.496 230.012 210.727 229.891V229.103Z" fill="#EB996E"/>
<path d="M209.378 224.062C209.456 224.062 209.427 224.544 209.825 224.914C210.223 225.283 210.734 225.254 210.734 225.318C210.734 225.382 210.613 225.403 210.4 225.403C210.115 225.391 209.843 225.278 209.633 225.084C209.431 224.901 209.308 224.646 209.293 224.374C209.285 224.175 209.349 224.062 209.378 224.062Z" fill="#263238"/>
<path d="M213.418 218.787C213.34 218.894 212.999 218.787 212.602 218.787C212.204 218.787 211.892 218.887 211.785 218.787C211.679 218.688 211.785 218.631 211.941 218.532C212.136 218.405 212.363 218.339 212.595 218.34C212.828 218.33 213.058 218.392 213.255 218.517C213.404 218.631 213.454 218.737 213.418 218.787Z" fill="#263238"/>
<path d="M207.944 221.464C207.942 221.572 207.983 221.676 208.057 221.754C208.132 221.833 208.234 221.879 208.342 221.883C208.394 221.888 208.448 221.884 208.498 221.868C208.549 221.853 208.595 221.828 208.636 221.794C208.676 221.76 208.71 221.719 208.734 221.671C208.757 221.624 208.772 221.573 208.775 221.52C208.777 221.412 208.737 221.306 208.663 221.227C208.588 221.147 208.486 221.1 208.377 221.094C208.325 221.09 208.271 221.095 208.221 221.111C208.17 221.127 208.124 221.153 208.083 221.188C208.043 221.222 208.01 221.264 207.986 221.312C207.962 221.359 207.948 221.411 207.944 221.464Z" fill="#263238"/>
<path d="M207.404 220.299C207.454 220.356 207.773 220.128 208.221 220.143C208.668 220.157 208.987 220.377 209.037 220.32C209.087 220.263 209.037 220.199 208.867 220.093C208.676 219.957 208.448 219.883 208.214 219.88C207.983 219.878 207.757 219.948 207.567 220.079C207.425 220.178 207.376 220.278 207.404 220.299Z" fill="#263238"/>
<path d="M207.148 219.347C207.234 219.447 207.582 219.347 207.993 219.347C208.405 219.347 208.753 219.426 208.838 219.347C208.923 219.269 208.838 219.198 208.668 219.099C208.461 218.978 208.226 218.914 207.986 218.914C207.747 218.914 207.511 218.978 207.305 219.099C207.156 219.191 207.106 219.298 207.148 219.347Z" fill="#263238"/>
<path d="M204.557 222.408C204.557 222.167 204.329 221.592 204.088 221.542C203.463 221.407 202.32 221.393 202.221 222.998C202.086 225.191 204.351 224.879 204.351 224.815C204.351 224.751 204.514 223.239 204.557 222.408Z" fill="#FFBE9D"/>
<path d="M203.769 223.976C203.769 223.976 203.734 223.976 203.663 224.026C203.571 224.061 203.47 224.061 203.379 224.026C203.242 223.929 203.133 223.796 203.065 223.643C202.996 223.489 202.97 223.32 202.988 223.153C202.996 222.965 203.044 222.781 203.13 222.613C203.156 222.546 203.197 222.486 203.25 222.438C203.303 222.39 203.366 222.355 203.435 222.336C203.48 222.328 203.525 222.334 203.565 222.355C203.605 222.375 203.637 222.409 203.656 222.45C203.662 222.488 203.662 222.526 203.656 222.564C203.656 222.564 203.705 222.528 203.691 222.436C203.681 222.381 203.653 222.332 203.613 222.294C203.585 222.27 203.552 222.252 203.516 222.241C203.481 222.23 203.444 222.226 203.407 222.23C203.316 222.24 203.229 222.275 203.155 222.329C203.082 222.384 203.024 222.458 202.988 222.542C202.882 222.726 202.824 222.934 202.818 223.146C202.794 223.34 202.829 223.537 202.917 223.711C203.006 223.886 203.144 224.03 203.315 224.126C203.37 224.153 203.431 224.167 203.492 224.167C203.554 224.167 203.614 224.153 203.67 224.126C203.769 224.026 203.769 223.976 203.769 223.976Z" fill="#EB996E"/>
<path d="M204.003 221.519L204.557 222.102C206.971 219.794 211.692 214.022 211.43 214.37C210.329 213.958 209.143 213.828 207.979 213.993C206.183 214.299 202.782 215.193 202.832 217.309C202.938 218.777 203.336 220.208 204.003 221.519Z" fill="#263238"/>
<path d="M200.809 221.058C200.809 221.058 200.809 221.016 200.809 220.93C200.852 220.814 200.902 220.7 200.958 220.59C201.187 220.182 201.502 219.828 201.881 219.553C202.455 219.156 203.094 218.86 203.769 218.68C204.479 218.438 205.331 218.254 206.148 217.906C206.917 217.587 207.646 217.179 208.32 216.692C208.871 216.294 209.384 215.848 209.854 215.357C210.252 214.931 210.564 214.562 210.742 214.306C210.827 214.178 210.905 214.079 210.962 214.001C211.018 213.923 211.04 213.894 211.047 213.901L210.983 214.015L210.777 214.327C210.516 214.708 210.226 215.069 209.911 215.407C209.444 215.911 208.931 216.37 208.377 216.777C207.696 217.26 206.959 217.661 206.183 217.97C205.36 218.318 204.522 218.502 203.791 218.737C203.137 218.917 202.518 219.205 201.959 219.589C201.582 219.85 201.265 220.189 201.029 220.583C200.946 220.736 200.872 220.895 200.809 221.058Z" fill="#455A64"/>
<path d="M201.448 221.407C201.443 221.242 201.472 221.077 201.533 220.924C201.696 220.505 201.983 220.145 202.357 219.895C202.916 219.538 203.541 219.296 204.196 219.185C204.979 219.032 205.743 218.794 206.475 218.475C207.201 218.144 207.883 217.725 208.505 217.225C209.36 216.54 210.095 215.717 210.678 214.79C210.756 214.662 210.82 214.563 210.862 214.477C210.885 214.442 210.912 214.409 210.941 214.378C210.925 214.418 210.906 214.456 210.884 214.492L210.713 214.811C210.495 215.197 210.244 215.563 209.961 215.904C209.541 216.429 209.065 216.905 208.541 217.324C207.914 217.835 207.225 218.262 206.489 218.595C205.748 218.917 204.974 219.155 204.181 219.305C203.537 219.419 202.921 219.661 202.371 220.015C201.999 220.251 201.708 220.595 201.54 221.002C201.497 221.134 201.466 221.269 201.448 221.407Z" fill="#455A64"/>
<path d="M200.162 241.237C200.058 239.84 200.058 238.438 200.162 237.041C200.257 238.438 200.257 239.84 200.162 241.237Z" fill="#263238"/>
<path d="M215.229 240.946C215.209 240.697 215.209 240.448 215.229 240.2C215.272 239.605 215.25 239.008 215.165 238.418C215.054 237.834 214.883 237.263 214.654 236.714C214.548 236.485 214.462 236.248 214.398 236.004C214.537 236.211 214.654 236.432 214.746 236.664C215.01 237.211 215.199 237.792 215.307 238.39C215.392 238.99 215.392 239.599 215.307 240.2C215.313 240.451 215.287 240.701 215.229 240.946Z" fill="#263238"/>
<path d="M291.866 236.345H237.587C236.292 236.343 235.052 235.828 234.137 234.912C233.223 233.996 232.709 232.755 232.709 231.461V219.504L226.724 214.193H291.866C293.159 214.195 294.399 214.71 295.313 215.624C296.227 216.538 296.742 217.778 296.744 219.071V231.461C296.744 232.755 296.23 233.996 295.316 234.912C294.401 235.828 293.16 236.343 291.866 236.345Z" fill="#EBEBEB"/>
<path d="M291.17 220.718C291.17 220.824 279.32 220.902 264.701 220.902C250.082 220.902 238.239 220.824 238.239 220.718C238.239 220.611 250.082 220.533 264.701 220.533C279.32 220.533 291.17 220.618 291.17 220.718Z" fill="white"/>
<path d="M291.17 224.608C291.17 224.708 279.32 224.793 264.701 224.793C250.082 224.793 238.239 224.708 238.239 224.608C238.239 224.509 250.082 224.424 264.701 224.424C279.32 224.424 291.17 224.509 291.17 224.608Z" fill="white"/>
<path d="M291.17 228.5C291.17 228.599 279.32 228.685 264.701 228.685C250.082 228.685 238.239 228.599 238.239 228.5C238.239 228.401 250.082 228.315 264.701 228.315C279.32 228.315 291.17 228.394 291.17 228.5Z" fill="white"/>
<path d="M291.17 133.295C291.17 133.394 279.32 133.48 264.701 133.48C250.082 133.48 238.239 133.394 238.239 133.295C238.239 133.196 250.082 133.11 264.701 133.11C279.32 133.11 291.17 133.188 291.17 133.295Z" fill="white"/>
<path d="M291.17 137.179C291.17 137.285 279.32 137.363 264.701 137.363C250.082 137.363 238.239 137.285 238.239 137.179C238.239 137.072 250.082 136.994 264.701 136.994C279.32 136.994 291.17 137.079 291.17 137.179Z" fill="white"/>
<path d="M291.17 141.851C291.17 141.957 279.32 142.035 264.701 142.035C250.082 142.035 238.239 141.957 238.239 141.851C238.239 141.744 250.082 141.666 264.701 141.666C279.32 141.666 291.17 141.751 291.17 141.851Z" fill="white"/>
<path d="M238.559 74.2878C238.597 73.736 238.795 73.2074 239.129 72.7667C239.463 72.3261 239.918 71.9925 240.439 71.8071C240.96 71.6216 241.524 71.5923 242.062 71.7227C242.599 71.8531 243.087 72.1375 243.465 72.5412L242.705 73.2512C242.548 73.0609 242.35 72.9081 242.127 72.8037C241.903 72.6993 241.659 72.646 241.413 72.6477C240.976 72.6477 240.557 72.8212 240.248 73.1301C239.939 73.439 239.766 73.858 239.766 74.2949C239.766 74.7317 239.939 75.1507 240.248 75.4596C240.557 75.7685 240.976 75.9421 241.413 75.9421C241.66 75.9439 241.905 75.8899 242.129 75.7842C242.352 75.6785 242.549 75.5237 242.705 75.3315L243.465 76.0415C243.087 76.4448 242.6 76.7292 242.063 76.8599C241.526 76.9906 240.963 76.9619 240.442 76.7773C239.922 76.5926 239.466 76.2601 239.131 75.8204C238.797 75.3808 238.598 74.8531 238.559 74.302V74.2878Z" fill="#263238"/>
<path d="M248.187 74.5929V76.8578H247.079V74.7704C247.079 74.1314 246.781 73.8403 246.277 73.8403C245.773 73.8403 245.333 74.1811 245.333 74.9053V76.8578H244.183V71.4121H245.333V73.322C245.499 73.162 245.697 73.0374 245.913 72.9556C246.128 72.8739 246.359 72.8367 246.59 72.8463C246.815 72.8372 247.039 72.8774 247.247 72.9641C247.456 73.0508 247.642 73.1819 247.794 73.3482C247.946 73.5146 248.06 73.7122 248.128 73.9271C248.196 74.1421 248.216 74.3694 248.187 74.5929Z" fill="#263238"/>
<path d="M252.717 74.6063V76.857H251.644V76.3671C251.511 76.5587 251.329 76.7107 251.116 76.8069C250.904 76.9032 250.669 76.9401 250.437 76.9138C249.514 76.9138 248.968 76.4026 248.968 75.721C248.968 75.0394 249.458 74.5353 250.665 74.5353H251.573C251.573 74.0454 251.275 73.7614 250.665 73.7614C250.255 73.7572 249.854 73.8841 249.522 74.1235L249.11 73.3283C249.616 73.0001 250.21 72.8319 250.814 72.8455C252.049 72.8455 252.717 73.4064 252.717 74.6063ZM251.573 75.6074V75.2027H250.785C250.253 75.2027 250.075 75.4015 250.075 75.6713C250.075 75.9411 250.317 76.147 250.721 76.147C250.903 76.1606 251.083 76.1154 251.237 76.0183C251.39 75.9211 251.508 75.777 251.573 75.6074Z" fill="#263238"/>
<path d="M256.309 76.6795C256.029 76.8553 255.703 76.942 255.372 76.928C255.177 76.9549 254.979 76.9371 254.792 76.876C254.605 76.8149 254.434 76.712 254.292 76.5753C254.151 76.4385 254.042 76.2714 253.975 76.0865C253.907 75.9016 253.882 75.7038 253.903 75.508V73.8821H253.292V73.0017H253.903V72.0361H255.046V73.0017H256.033V73.8821H255.046V75.4938C255.037 75.5615 255.044 75.6302 255.065 75.695C255.086 75.7599 255.121 75.8192 255.168 75.8688C255.215 75.9183 255.272 75.9569 255.336 75.9817C255.399 76.0065 255.468 76.0169 255.536 76.0121C255.702 76.0181 255.866 75.9654 255.997 75.863L256.309 76.6795Z" fill="#263238"/>
<path d="M276.566 82.2103C276.566 82.3097 264.496 82.3949 249.536 82.3949C234.577 82.3949 222.514 82.3097 222.514 82.2103C222.514 82.1109 234.584 82.0186 249.536 82.0186C264.489 82.0186 276.566 82.1038 276.566 82.2103Z" fill="#263238"/>
<path d="M300.514 74.2868C301.208 74.2868 301.77 73.7242 301.77 73.0301C301.77 72.3361 301.208 71.7734 300.514 71.7734C299.819 71.7734 299.257 72.3361 299.257 73.0301C299.257 73.7242 299.819 74.2868 300.514 74.2868Z" fill="#263238"/>
<path d="M301.749 76.6805C301.751 76.9311 301.678 77.1764 301.539 77.3853C301.401 77.5942 301.204 77.7573 300.972 77.8539C300.741 77.9504 300.486 77.976 300.241 77.9275C299.995 77.8789 299.769 77.7584 299.592 77.5813C299.415 77.4041 299.294 77.1783 299.246 76.9324C299.197 76.6866 299.223 76.4319 299.319 76.2007C299.416 75.9695 299.579 75.7722 299.788 75.6339C299.997 75.4955 300.242 75.4224 300.493 75.4238C300.825 75.4257 301.144 75.5587 301.379 75.794C301.614 76.0293 301.747 76.3478 301.749 76.6805Z" fill="#263238"/>
<path d="M301.749 80.3651C301.751 80.6157 301.678 80.861 301.539 81.0699C301.401 81.2788 301.204 81.4419 300.972 81.5384C300.741 81.635 300.486 81.6606 300.241 81.6121C299.995 81.5635 299.769 81.443 299.592 81.2658C299.415 81.0887 299.294 80.8628 299.246 80.617C299.197 80.3712 299.223 80.1165 299.319 79.8853C299.416 79.6541 299.579 79.4568 299.788 79.3184C299.997 79.1801 300.242 79.107 300.493 79.1084C300.826 79.1084 301.145 79.2408 301.381 79.4765C301.617 79.7122 301.749 80.0318 301.749 80.3651Z" fill="#263238"/>
<path d="M198.317 77.2907C198.24 77.2924 198.165 77.2673 198.104 77.2197L194.774 74.7773C194.729 74.7435 194.691 74.6996 194.666 74.6492C194.64 74.5987 194.626 74.5429 194.625 74.4862C194.625 74.4304 194.639 74.3754 194.665 74.326C194.691 74.2766 194.728 74.2341 194.774 74.2022L198.104 71.8024C198.142 71.7752 198.185 71.7558 198.231 71.7453C198.277 71.7348 198.324 71.7335 198.37 71.7414C198.416 71.7494 198.461 71.7664 198.5 71.7914C198.54 71.8165 198.574 71.8492 198.601 71.8876C198.655 71.9633 198.676 72.0569 198.662 72.1485C198.647 72.24 198.597 72.3222 198.523 72.3775L195.584 74.5075L198.523 76.6375C198.598 76.6941 198.648 76.7775 198.662 76.8702C198.677 76.9629 198.655 77.0577 198.601 77.1345C198.57 77.1816 198.528 77.2205 198.478 77.2477C198.429 77.2749 198.373 77.2897 198.317 77.2907Z" fill="#263238"/>
<path d="M285.213 196.67C294.009 196.67 301.139 189.556 301.139 180.78C301.139 172.005 294.009 164.891 285.213 164.891C276.418 164.891 269.288 172.005 269.288 180.78C269.288 189.556 276.418 196.67 285.213 196.67Z" fill="#E0E0E0"/>
<path d="M289.572 190.173H281.194C280.908 190.173 280.634 190.06 280.431 189.857C280.229 189.655 280.115 189.38 280.115 189.094C280.115 188.807 280.229 188.532 280.431 188.328C280.633 188.125 280.908 188.01 281.194 188.008H289.572C289.859 188.01 290.134 188.125 290.336 188.328C290.538 188.532 290.652 188.807 290.652 189.094C290.652 189.38 290.538 189.655 290.336 189.857C290.133 190.06 289.859 190.173 289.572 190.173Z" fill="#263238"/>
<path d="M285.859 170.45H285.121V174.171H285.859V170.45Z" fill="#263238"/>
<path d="M274.634 185.325C275.826 185.325 276.792 184.358 276.792 183.166C276.792 181.974 275.826 181.008 274.634 181.008C273.442 181.008 272.476 181.974 272.476 183.166C272.476 184.358 273.442 185.325 274.634 185.325Z" fill="#5532FA"/>
<path d="M296.46 185.183C297.652 185.183 298.619 184.217 298.619 183.025C298.619 181.833 297.652 180.866 296.46 180.866C295.268 180.866 294.302 181.833 294.302 183.025C294.302 184.217 295.268 185.183 296.46 185.183Z" fill="#5532FA"/>
<path d="M285.81 173.389C285.81 173.389 294.6 173.282 295.991 180.901C297.383 188.519 289.949 188.654 287.812 188.796C286.847 188.86 284.773 188.867 282.942 188.839C278.887 188.768 276.026 187.987 275.053 184.224C274.937 183.782 274.863 183.33 274.833 182.875C274.578 178.757 277.361 173.19 285.81 173.389Z" fill="#5532FA"/>
<path d="M279.434 184.984L292.214 185.183C292.857 185.192 293.477 184.947 293.939 184.499C294.401 184.052 294.666 183.44 294.678 182.797C294.685 182.155 294.438 181.535 293.989 181.074C293.541 180.614 292.928 180.35 292.285 180.341L279.505 180.142C279.186 180.136 278.87 180.194 278.574 180.311C278.277 180.427 278.007 180.602 277.778 180.823C277.549 181.045 277.366 181.31 277.24 181.602C277.113 181.895 277.046 182.209 277.041 182.528C277.037 182.846 277.095 183.162 277.213 183.458C277.33 183.754 277.505 184.024 277.728 184.253C277.95 184.481 278.215 184.663 278.508 184.788C278.801 184.914 279.115 184.98 279.434 184.984Z" fill="#263238"/>
<path d="M289.558 182.534C289.577 182.635 289.616 182.73 289.672 182.816C289.727 182.901 289.8 182.975 289.884 183.032C289.969 183.09 290.064 183.13 290.164 183.15C290.264 183.171 290.367 183.171 290.467 183.152C290.575 183.141 290.68 183.108 290.774 183.054C290.869 183 290.951 182.928 291.016 182.84C291.081 182.753 291.127 182.653 291.151 182.547C291.175 182.441 291.176 182.332 291.155 182.225C291.135 182.118 291.092 182.017 291.03 181.928C290.967 181.839 290.887 181.764 290.795 181.707C290.702 181.651 290.598 181.615 290.491 181.6C290.383 181.586 290.273 181.595 290.169 181.625C290.069 181.645 289.974 181.684 289.89 181.74C289.805 181.796 289.732 181.869 289.675 181.953C289.619 182.038 289.579 182.132 289.559 182.232C289.539 182.332 289.539 182.434 289.558 182.534Z" fill="white"/>
<path d="M280.634 182.393C280.645 182.501 280.678 182.605 280.732 182.7C280.785 182.794 280.858 182.877 280.945 182.941C281.033 183.006 281.132 183.052 281.238 183.076C281.344 183.1 281.454 183.102 281.561 183.081C281.667 183.06 281.768 183.017 281.857 182.955C281.947 182.893 282.022 182.813 282.078 182.72C282.135 182.627 282.171 182.524 282.185 182.416C282.199 182.308 282.191 182.199 282.16 182.094C282.106 181.908 281.983 181.748 281.817 181.647C281.65 181.546 281.452 181.51 281.261 181.548C281.07 181.585 280.9 181.692 280.784 181.849C280.668 182.005 280.614 182.199 280.634 182.393Z" fill="white"/>
<path d="M286.704 170.4C286.705 170.641 286.635 170.876 286.502 171.077C286.37 171.277 286.181 171.434 285.959 171.527C285.737 171.62 285.493 171.645 285.257 171.599C285.021 171.553 284.804 171.438 284.634 171.268C284.463 171.099 284.347 170.883 284.299 170.647C284.252 170.411 284.275 170.167 284.367 169.944C284.459 169.722 284.614 169.532 284.814 169.398C285.014 169.265 285.249 169.193 285.489 169.193C285.81 169.193 286.118 169.32 286.345 169.546C286.573 169.773 286.702 170.08 286.704 170.4Z" fill="#5532FA"/>
<path d="M287.322 182.179C287.322 182.179 287.372 182.236 287.4 182.363C287.422 182.545 287.405 182.729 287.35 182.903C287.272 183.172 287.125 183.417 286.924 183.613C286.678 183.859 286.355 184.012 286.008 184.046C285.662 184.075 285.317 183.985 285.029 183.79C284.801 183.636 284.613 183.429 284.482 183.187C284.398 183.024 284.349 182.845 284.34 182.662C284.34 182.534 284.34 182.463 284.382 182.463C284.425 182.463 284.453 182.733 284.688 183.066C284.824 183.251 284.996 183.408 285.192 183.528C285.429 183.669 285.705 183.733 285.98 183.712C286.244 183.678 286.492 183.564 286.69 183.386C286.869 183.237 287.012 183.05 287.109 182.839C287.293 182.47 287.265 182.179 287.322 182.179Z" fill="white"/>
<path d="M295.977 180.652C296.003 180.712 296.025 180.774 296.041 180.837C296.068 180.911 296.092 180.987 296.112 181.064C296.112 181.149 296.161 181.249 296.183 181.369C296.237 181.634 296.275 181.902 296.296 182.172C296.321 182.503 296.321 182.835 296.296 183.166C296.267 183.496 296.212 183.824 296.133 184.146C296.066 184.407 295.981 184.663 295.877 184.912C295.842 185.011 295.802 185.109 295.757 185.203C295.726 185.274 295.69 185.343 295.65 185.409L295.551 185.587C295.566 185.521 295.593 185.459 295.629 185.402L295.721 185.182C295.757 185.097 295.799 185.005 295.835 184.898C295.93 184.648 296.009 184.392 296.069 184.131C296.145 183.811 296.199 183.486 296.232 183.159C296.253 182.83 296.253 182.5 296.232 182.172C296.215 181.905 296.181 181.639 296.133 181.377C296.118 181.267 296.097 181.157 296.069 181.05C296.069 180.958 296.034 180.887 296.019 180.823C295.997 180.768 295.983 180.711 295.977 180.652Z" fill="#263238"/>
<path d="M275.153 180.695C275.122 180.757 275.098 180.821 275.082 180.887C275.082 180.944 275.039 181.022 275.011 181.107C274.982 181.192 274.961 181.299 274.939 181.412C274.885 181.677 274.849 181.945 274.833 182.215C274.808 182.546 274.808 182.878 274.833 183.209C274.861 183.539 274.916 183.867 274.996 184.189C275.062 184.452 275.148 184.711 275.252 184.962C275.287 185.069 275.337 185.161 275.373 185.246C275.408 185.332 275.451 185.403 275.479 185.459L275.579 185.63C275.56 185.565 275.534 185.503 275.5 185.445C275.5 185.388 275.444 185.317 275.408 185.232C275.373 185.147 275.33 185.055 275.294 184.948C275.199 184.696 275.121 184.437 275.06 184.174C274.984 183.854 274.929 183.529 274.897 183.202C274.876 182.875 274.876 182.548 274.897 182.222C274.915 181.953 274.948 181.685 274.996 181.42C275.011 181.319 275.033 181.219 275.06 181.121C275.06 181.029 275.096 180.951 275.11 180.894C275.124 180.837 275.153 180.695 275.153 180.695Z" fill="#263238"/>
<path d="M277.048 194.426C277.048 194.426 279.661 191.877 285.121 191.877C290.58 191.877 293.378 194.426 293.378 194.426C290.914 195.913 288.091 196.698 285.213 196.698C282.335 196.698 279.512 195.913 277.048 194.426Z" fill="#5532FA"/>
<path d="M198.09 196.982H252.362C253.003 196.983 253.638 196.858 254.23 196.613C254.822 196.368 255.36 196.009 255.813 195.556C256.266 195.103 256.626 194.564 256.87 193.972C257.115 193.38 257.241 192.745 257.24 192.105V176.357L263.225 171.046H198.09C197.449 171.046 196.815 171.172 196.223 171.417C195.631 171.662 195.094 172.022 194.641 172.475C194.188 172.927 193.828 173.465 193.583 174.057C193.338 174.649 193.212 175.283 193.212 175.924V192.105C193.211 192.745 193.337 193.38 193.581 193.972C193.826 194.564 194.185 195.103 194.638 195.556C195.092 196.009 195.63 196.368 196.222 196.613C196.814 196.858 197.449 196.983 198.09 196.982Z" fill="#EBEBEB"/>
<path d="M249.919 178.742C249.919 178.849 238.744 178.927 224.956 178.927C211.168 178.927 199.992 178.849 199.992 178.742C199.992 178.636 211.168 178.558 224.956 178.558C238.744 178.558 249.919 178.643 249.919 178.742Z" fill="white"/>
<path d="M249.919 182.96C249.919 183.066 238.744 183.145 224.956 183.145C211.168 183.145 199.992 183.066 199.992 182.96C199.992 182.853 211.168 182.775 224.956 182.775C238.744 182.775 249.919 182.861 249.919 182.96Z" fill="white"/>
<path d="M249.919 187.177C249.919 187.276 238.744 187.361 224.956 187.361C211.168 187.361 199.992 187.276 199.992 187.177C199.992 187.077 211.168 186.992 224.956 186.992C238.744 186.992 249.919 187.077 249.919 187.177Z" fill="white"/>
<path d="M249.919 191.395C249.919 191.494 238.744 191.579 224.956 191.579C211.168 191.579 199.992 191.494 199.992 191.395C199.992 191.295 211.168 191.21 224.956 191.21C238.744 191.21 249.919 191.288 249.919 191.395Z" fill="white"/>
<path d="M285.213 284.909C294.009 284.909 301.139 277.795 301.139 269.02C301.139 260.244 294.009 253.13 285.213 253.13C276.418 253.13 269.288 260.244 269.288 269.02C269.288 277.795 276.418 284.909 285.213 284.909Z" fill="#E0E0E0"/>
<path d="M289.572 278.413H281.194C281.052 278.413 280.911 278.384 280.78 278.33C280.648 278.275 280.529 278.195 280.429 278.094C280.329 277.993 280.249 277.873 280.195 277.741C280.142 277.61 280.114 277.469 280.115 277.326C280.115 277.04 280.229 276.766 280.431 276.563C280.634 276.361 280.908 276.247 281.194 276.247H289.572C289.859 276.247 290.133 276.361 290.336 276.563C290.538 276.766 290.652 277.04 290.652 277.326C290.653 277.469 290.625 277.61 290.572 277.741C290.518 277.873 290.438 277.993 290.338 278.094C290.238 278.195 290.118 278.275 289.987 278.33C289.856 278.384 289.715 278.413 289.572 278.413Z" fill="#263238"/>
<path d="M285.859 258.688H285.121V262.409H285.859V258.688Z" fill="#263238"/>
<path d="M274.634 273.563C275.826 273.563 276.792 272.597 276.792 271.405C276.792 270.212 275.826 269.246 274.634 269.246C273.442 269.246 272.476 270.212 272.476 271.405C272.476 272.597 273.442 273.563 274.634 273.563Z" fill="#5532FA"/>
<path d="M296.46 273.413C297.652 273.413 298.619 272.447 298.619 271.255C298.619 270.063 297.652 269.097 296.46 269.097C295.268 269.097 294.302 270.063 294.302 271.255C294.302 272.447 295.268 273.413 296.46 273.413Z" fill="#5532FA"/>
<path d="M285.81 261.629C285.81 261.629 294.6 261.522 295.991 269.133C297.383 276.744 289.949 276.894 287.812 277.036C286.847 277.099 284.773 277.107 282.942 277.078C278.887 277.007 276.026 276.219 275.053 272.463C274.937 272.022 274.863 271.57 274.833 271.114C274.578 266.996 277.361 261.423 285.81 261.629Z" fill="#5532FA"/>
<path d="M279.434 273.222L292.214 273.42C292.857 273.43 293.477 273.184 293.939 272.737C294.401 272.29 294.666 271.678 294.678 271.035C294.685 270.392 294.438 269.772 293.989 269.312C293.541 268.851 292.928 268.588 292.285 268.578L279.505 268.372C278.862 268.363 278.242 268.609 277.78 269.056C277.318 269.503 277.052 270.115 277.041 270.758C277.037 271.077 277.095 271.394 277.212 271.69C277.33 271.986 277.505 272.257 277.727 272.485C277.949 272.714 278.215 272.897 278.507 273.023C278.8 273.15 279.115 273.217 279.434 273.222Z" fill="#263238"/>
<path d="M289.558 270.773C289.576 270.874 289.613 270.971 289.667 271.058C289.722 271.145 289.793 271.22 289.877 271.279C289.961 271.338 290.055 271.381 290.155 271.403C290.255 271.426 290.359 271.429 290.46 271.412C290.561 271.395 290.658 271.358 290.745 271.303C290.832 271.248 290.907 271.177 290.966 271.093C291.026 271.01 291.068 270.915 291.091 270.815C291.113 270.715 291.116 270.611 291.099 270.51C291.088 270.402 291.055 270.297 291.001 270.203C290.948 270.109 290.875 270.026 290.788 269.962C290.7 269.897 290.601 269.851 290.495 269.827C290.389 269.803 290.279 269.801 290.172 269.822C290.066 269.843 289.965 269.886 289.875 269.948C289.786 270.01 289.711 270.09 289.655 270.183C289.598 270.276 289.562 270.379 289.548 270.487C289.534 270.595 289.542 270.704 289.573 270.808L289.558 270.773Z" fill="white"/>
<path d="M280.634 270.63C280.663 270.782 280.737 270.921 280.846 271.031C280.954 271.141 281.093 271.216 281.245 271.247C281.396 271.277 281.553 271.263 281.696 271.204C281.839 271.146 281.961 271.046 282.048 270.918C282.134 270.79 282.18 270.639 282.181 270.485C282.182 270.33 282.137 270.179 282.051 270.05C281.966 269.921 281.845 269.821 281.702 269.761C281.56 269.701 281.403 269.685 281.251 269.715C281.151 269.734 281.055 269.773 280.969 269.83C280.884 269.887 280.81 269.959 280.753 270.044C280.695 270.13 280.655 270.225 280.635 270.326C280.614 270.426 280.614 270.53 280.634 270.63Z" fill="white"/>
<path d="M286.704 258.611C286.704 258.851 286.632 259.085 286.499 259.285C286.366 259.485 286.176 259.64 285.954 259.732C285.732 259.824 285.488 259.848 285.253 259.801C285.017 259.755 284.801 259.639 284.631 259.469C284.461 259.299 284.346 259.083 284.299 258.847C284.252 258.612 284.276 258.368 284.368 258.146C284.46 257.924 284.615 257.734 284.815 257.601C285.015 257.468 285.249 257.396 285.489 257.396C285.811 257.396 286.12 257.524 286.348 257.752C286.576 257.98 286.704 258.289 286.704 258.611Z" fill="#5532FA"/>
<path d="M287.322 270.411C287.322 270.411 287.372 270.475 287.4 270.603C287.422 270.784 287.405 270.968 287.35 271.142C287.27 271.411 287.124 271.656 286.924 271.852C286.678 272.098 286.355 272.251 286.008 272.286C285.662 272.314 285.317 272.224 285.029 272.03C284.801 271.875 284.613 271.669 284.482 271.426C284.399 271.263 284.35 271.084 284.34 270.901C284.34 270.773 284.34 270.702 284.382 270.702C284.425 270.702 284.453 270.972 284.688 271.299C284.822 271.487 284.994 271.647 285.192 271.767C285.431 271.904 285.705 271.968 285.98 271.952C286.244 271.918 286.492 271.804 286.69 271.625C286.866 271.474 287.008 271.288 287.109 271.079C287.293 270.695 287.265 270.418 287.322 270.411Z" fill="white"/>
<path d="M295.977 268.885C295.977 268.885 295.977 268.956 296.041 269.076C296.069 269.151 296.093 269.226 296.112 269.304C296.112 269.389 296.161 269.488 296.183 269.602C296.236 269.867 296.274 270.135 296.296 270.404C296.321 270.735 296.321 271.067 296.296 271.398C296.268 271.729 296.213 272.056 296.133 272.378C296.067 272.642 295.982 272.901 295.877 273.152C295.842 273.249 295.802 273.343 295.757 273.436C295.727 273.51 295.691 273.581 295.65 273.649L295.551 273.819C295.569 273.755 295.596 273.693 295.629 273.635C295.629 273.578 295.686 273.507 295.721 273.422C295.757 273.336 295.799 273.244 295.835 273.138C295.931 272.886 296.009 272.627 296.069 272.364C296.145 272.046 296.2 271.723 296.232 271.398C296.253 271.07 296.253 270.74 296.232 270.411C296.215 270.144 296.182 269.879 296.133 269.616C296.118 269.513 296.097 269.411 296.069 269.311C296.069 269.218 296.034 269.147 296.019 269.084C295.995 269.02 295.981 268.953 295.977 268.885Z" fill="#263238"/>
<path d="M275.153 268.934C275.122 268.995 275.098 269.059 275.082 269.125C275.082 269.182 275.039 269.26 275.011 269.345C274.982 269.431 274.961 269.537 274.939 269.651C274.885 269.915 274.849 270.183 274.833 270.453C274.808 270.784 274.808 271.116 274.833 271.447C274.862 271.777 274.917 272.105 274.996 272.427C275.062 272.691 275.148 272.949 275.252 273.201C275.287 273.307 275.337 273.399 275.373 273.485C275.408 273.57 275.451 273.641 275.479 273.698L275.579 273.868C275.561 273.803 275.535 273.741 275.5 273.683C275.5 273.627 275.444 273.556 275.408 273.471C275.373 273.385 275.33 273.293 275.294 273.179C275.199 272.929 275.121 272.673 275.06 272.413C274.984 272.092 274.929 271.767 274.897 271.44C274.876 271.114 274.876 270.786 274.897 270.46C274.915 270.191 274.948 269.923 274.996 269.658C275.011 269.557 275.033 269.458 275.06 269.36C275.06 269.267 275.096 269.189 275.11 269.132C275.124 269.076 275.153 268.934 275.153 268.934Z" fill="#263238"/>
<path d="M277.048 282.665C277.048 282.665 279.661 280.116 285.121 280.116C290.58 280.116 293.378 282.665 293.378 282.665C290.914 284.152 288.091 284.938 285.213 284.938C282.335 284.938 279.512 284.152 277.048 282.665Z" fill="#5532FA"/>
<path d="M198.09 285.221H252.362C253.003 285.222 253.638 285.097 254.23 284.852C254.822 284.607 255.36 284.248 255.813 283.795C256.266 283.342 256.626 282.804 256.87 282.211C257.115 281.619 257.241 280.985 257.24 280.344V264.596L263.225 259.285H198.09C197.449 259.285 196.815 259.411 196.223 259.656C195.631 259.902 195.094 260.261 194.641 260.714C194.188 261.167 193.828 261.704 193.583 262.296C193.338 262.888 193.212 263.522 193.212 264.163V280.344C193.211 280.985 193.337 281.619 193.581 282.211C193.826 282.804 194.185 283.342 194.638 283.795C195.092 284.248 195.63 284.607 196.222 284.852C196.814 285.097 197.449 285.222 198.09 285.221Z" fill="#EBEBEB"/>
<path d="M198.09 309.851H252.362C253.003 309.851 253.638 309.724 254.23 309.479C254.823 309.233 255.361 308.873 255.814 308.419C256.267 307.966 256.626 307.427 256.87 306.835C257.115 306.242 257.241 305.607 257.24 304.966V299.747L263.225 294.437H198.09C197.449 294.437 196.815 294.563 196.223 294.808C195.631 295.053 195.093 295.412 194.641 295.865C194.188 296.318 193.828 296.856 193.583 297.448C193.338 298.039 193.212 298.674 193.212 299.314V304.994C193.218 306.284 193.734 307.519 194.648 308.43C195.562 309.34 196.8 309.851 198.09 309.851Z" fill="#EBEBEB"/>
<path d="M249.919 266.96C249.919 267.066 238.744 267.145 224.956 267.145C211.168 267.145 199.992 267.066 199.992 266.96C199.992 266.853 211.168 266.775 224.956 266.775C238.744 266.775 249.919 266.882 249.919 266.96Z" fill="white"/>
<path d="M249.919 271.22C249.919 271.319 238.744 271.404 224.956 271.404C211.168 271.404 199.992 271.319 199.992 271.22C199.992 271.12 211.168 271.035 224.956 271.035C238.744 271.035 249.919 271.099 249.919 271.22Z" fill="white"/>
<path d="M249.919 275.416C249.919 275.515 238.744 275.601 224.956 275.601C211.168 275.601 199.992 275.515 199.992 275.416C199.992 275.317 211.168 275.231 224.956 275.231C238.744 275.231 249.919 275.31 249.919 275.416Z" fill="white"/>
<path d="M249.919 279.634C249.919 279.733 238.744 279.818 224.956 279.818C211.168 279.818 199.992 279.733 199.992 279.634C199.992 279.534 211.168 279.449 224.956 279.449C238.744 279.449 249.919 279.527 249.919 279.634Z" fill="white"/>
<path d="M250.09 302.368C250.09 302.468 239.028 302.553 225.389 302.553C211.75 302.553 200.681 302.468 200.681 302.368C200.681 302.269 211.742 302.184 225.389 302.184C239.035 302.184 250.09 302.262 250.09 302.368Z" fill="white"/>
<path d="M68.4716 292.087C69.4279 292.318 70.3278 292.739 71.1172 293.326C71.9066 293.913 72.5693 294.653 73.0653 295.503C74.0467 297.213 74.6269 299.123 74.7622 301.09C75.1243 304.867 73.8108 309.035 72.1778 312.45C68.4929 310.391 66.7818 305.812 66.0576 303.433C64.9145 299.677 65.1275 292.187 68.4716 292.073" fill="#455A64"/>
<path d="M77.0773 317.789C76.6373 316.783 76.4712 315.678 76.5959 314.587C76.7206 313.496 77.1316 312.458 77.7873 311.577C78.4621 310.709 79.3034 309.986 80.2617 309.448C81.22 308.91 82.2761 308.569 83.3679 308.445C83.8579 308.339 84.365 308.34 84.8549 308.446C85.3448 308.553 85.8062 308.763 86.2079 309.063C86.5344 309.41 86.762 309.838 86.8669 310.302C86.9718 310.767 86.9502 311.251 86.8043 311.704C86.5027 312.608 85.9689 313.416 85.2565 314.047C82.9206 316.305 80.2439 318.059 77.0063 317.789" fill="#455A64"/>
<path d="M75.4872 329.952C75.4453 329.694 75.4286 329.432 75.4375 329.171C75.4375 328.617 75.4375 327.9 75.3807 327.041C75.2361 324.686 75.4759 322.324 76.0907 320.047C76.7508 317.764 78.0082 315.697 79.733 314.062C80.2612 313.576 80.8451 313.154 81.4725 312.805C81.64 312.71 81.8131 312.624 81.9908 312.55C82.0495 312.514 82.1146 312.49 82.1825 312.479C81.3556 312.975 80.5802 313.553 79.8679 314.204C78.2013 315.844 76.9797 317.882 76.3179 320.125C75.707 322.377 75.4366 324.708 75.5156 327.041C75.5156 327.942 75.5156 328.667 75.5156 329.171C75.5253 329.431 75.5158 329.692 75.4872 329.952Z" fill="#263238"/>
<path d="M68.8134 297.81C68.8588 297.913 68.8945 298.019 68.9199 298.129C68.9909 298.37 69.0761 298.683 69.1755 299.066C69.3956 299.883 69.7009 301.068 70.0559 302.538C70.7659 305.478 71.7173 309.553 72.6545 314.069C73.5917 318.584 74.3443 322.702 74.8484 325.684C75.0969 327.175 75.2886 328.382 75.4164 329.234C75.4732 329.632 75.5158 329.944 75.5513 330.2C75.5626 330.313 75.5626 330.427 75.5513 330.541C75.5146 330.432 75.4861 330.32 75.4661 330.207C75.4164 329.958 75.3596 329.646 75.2815 329.248C75.1182 328.389 74.8981 327.189 74.6283 325.734C74.0745 322.759 73.2935 318.634 72.3563 314.14C71.4191 309.645 70.5103 305.549 69.8429 302.602C69.5092 301.182 69.2394 299.968 69.0477 299.109C68.9625 298.718 68.8915 298.399 68.8418 298.157C68.8189 298.043 68.8094 297.926 68.8134 297.81Z" fill="#263238"/>
<path d="M72.1783 321.176C71.3244 319.024 69.9714 317.107 68.2308 315.581C66.4903 314.055 64.412 312.965 62.1673 312.4C61.0242 312.123 59.6042 312.088 58.9084 313.039C58.2126 313.99 58.7025 315.339 59.3486 316.326C60.7299 318.356 62.6795 319.932 64.9529 320.858C67.2264 321.784 69.7226 322.018 72.1286 321.531" fill="#455A64"/>
<path d="M63.4173 315.759C63.6577 315.789 63.8952 315.839 64.1273 315.908C64.4083 315.973 64.6856 316.054 64.958 316.149C65.2704 316.263 65.668 316.362 66.0301 316.54C66.3922 316.717 66.8537 316.888 67.2868 317.129C67.7623 317.37 68.2223 317.64 68.6642 317.938C69.6822 318.614 70.6185 319.405 71.4545 320.296C72.2743 321.199 72.9889 322.192 73.5845 323.256C73.847 323.716 74.084 324.19 74.2945 324.676C74.4764 325.103 74.6352 325.539 74.7702 325.983C74.9122 326.38 74.969 326.764 75.0542 327.09C75.1222 327.371 75.1744 327.656 75.2104 327.942C75.2539 328.177 75.2776 328.414 75.2814 328.652C75.2175 328.652 75.1039 327.616 74.5714 326.018C74.4308 325.586 74.2673 325.162 74.0815 324.747C73.871 324.261 73.634 323.787 73.3715 323.327C72.7693 322.287 72.055 321.316 71.2415 320.431C70.4165 319.559 69.5027 318.776 68.5151 318.095C68.0465 317.796 67.6063 317.505 67.1661 317.285C66.7684 317.059 66.3583 316.855 65.9378 316.675C64.4255 316.05 63.396 315.816 63.4173 315.759Z" fill="#263238"/>
<path d="M85.9815 107.707L83.3545 99.507C87.0909 93.4437 88.4243 86.202 87.0924 79.2056C85.7604 72.2091 81.8597 65.9639 76.1568 61.6976C70.4539 57.4312 63.3615 55.4523 56.2736 56.1499C49.1857 56.8475 42.6151 60.1711 37.8534 65.4674C33.0917 70.7637 30.4833 77.6496 30.541 84.7715C30.5986 91.8933 33.3181 98.7361 38.1649 103.955C43.0118 109.173 49.6353 112.39 56.7335 112.973C63.8317 113.555 70.8912 111.462 76.5243 107.104L85.9815 107.707Z" fill="#FAFAFA"/>
<path d="M85.9813 107.708H85.3849L83.5815 107.615L76.4815 107.225C76.4706 107.225 76.4598 107.223 76.4498 107.218C76.4399 107.214 76.4309 107.207 76.4236 107.199C76.4162 107.191 76.4106 107.182 76.4071 107.172C76.4037 107.161 76.4024 107.15 76.4034 107.14C76.4003 107.125 76.4003 107.111 76.4034 107.097L76.517 107.211C71.5835 111.064 65.5167 113.183 59.2569 113.238C57.6759 113.23 56.0977 113.104 54.5354 112.862C47.2759 111.726 40.7374 107.826 36.2884 101.978C33.8106 98.6859 32.0652 94.9022 31.1693 90.8805C30.1957 86.6045 30.2346 82.1601 31.2829 77.9017C31.4178 77.3621 31.5598 76.8154 31.7018 76.2758C31.8438 75.7362 32.0781 75.2108 32.2627 74.6783C32.4426 74.1398 32.6511 73.6113 32.8875 73.095C33.1289 72.5838 33.3774 72.0726 33.5975 71.5543C33.8418 71.0362 34.1217 70.5356 34.4353 70.0562L35.337 68.5794L36.3736 67.1594L36.899 66.4494C37.0765 66.2222 37.2824 66.0163 37.4741 65.7962C40.5444 62.266 44.4394 59.5491 48.8128 57.8868C52.9762 56.3004 57.4469 55.686 61.8839 56.0905C66.0531 56.5051 70.0796 57.8335 73.677 59.9813C80.0699 63.7782 84.7328 69.9156 86.6771 77.0923C87.0878 78.63 87.3821 80.1964 87.5575 81.7783C87.6712 83.257 87.6973 84.7411 87.6356 86.2229C87.3635 90.9452 85.9136 95.5243 83.4182 99.5425V99.4786C84.256 102.148 84.895 104.207 85.3352 105.613C85.5482 106.323 85.7044 106.813 85.818 107.175L85.9742 107.7C85.9742 107.7 85.9032 107.509 85.7825 107.154L85.2642 105.585C84.8098 104.165 84.1353 102.162 83.2691 99.5283C83.2615 99.5077 83.2615 99.485 83.2691 99.4644C85.7175 95.4552 87.1302 90.8998 87.38 86.2087C87.4344 84.7407 87.4012 83.2708 87.2806 81.8067C87.1033 80.2386 86.8066 78.6863 86.3931 77.1633C84.8702 71.6385 81.7115 66.7037 77.3321 63.0074C72.9528 59.311 67.5575 57.026 61.8555 56.4526C57.4744 56.0517 53.0596 56.6563 48.9477 58.2205C44.6408 59.8686 40.8053 62.5507 37.7794 66.0305C37.5948 66.2506 37.3889 66.4494 37.2114 66.6766L36.6931 67.3866L35.6707 68.7569L34.7903 70.2195C34.4779 70.6972 34.198 71.1953 33.9525 71.7105C33.7111 72.2146 33.4697 72.7258 33.2425 73.2299C33.0108 73.7392 32.807 74.2606 32.6319 74.7919C32.4473 75.3173 32.2272 75.8356 32.071 76.3681C31.9148 76.9006 31.7941 77.4402 31.6592 77.9727C30.6297 82.1656 30.5859 86.5401 31.5314 90.7527C32.7616 96.2847 35.6252 101.32 39.751 105.205C43.8767 109.09 49.0744 111.646 54.6703 112.543C56.2184 112.786 57.7821 112.916 59.3492 112.933C60.8119 112.927 62.2719 112.806 63.7157 112.571C68.3676 111.813 72.7589 109.913 76.4957 107.04C76.503 107.032 76.5118 107.026 76.5215 107.022C76.5313 107.018 76.5418 107.016 76.5525 107.016C76.5631 107.016 76.5736 107.018 76.5834 107.022C76.5932 107.026 76.602 107.032 76.6093 107.04C76.6197 107.055 76.6253 107.072 76.6253 107.09C76.6253 107.108 76.6197 107.125 76.6093 107.14L76.5525 107.012L83.5673 107.495L85.3849 107.622L85.9813 107.708Z" fill="#263238"/>
<path d="M51.0782 84.5899C51.0782 85.1614 50.9088 85.7201 50.5912 86.1953C50.2737 86.6705 49.8224 87.0409 49.2944 87.2596C48.7663 87.4783 48.1853 87.5356 47.6248 87.4241C47.0642 87.3126 46.5493 87.0374 46.1452 86.6332C45.7411 86.2291 45.4659 85.7142 45.3544 85.1537C45.2429 84.5931 45.3001 84.0121 45.5188 83.4841C45.7375 82.956 46.1079 82.5047 46.5831 82.1872C47.0583 81.8697 47.617 81.7002 48.1885 81.7002C48.9544 81.7021 49.6883 82.0071 50.2298 82.5486C50.7713 83.0902 51.0764 83.8241 51.0782 84.5899Z" fill="#263238"/>
<path d="M62.6505 84.5899C62.6505 85.1614 62.481 85.7201 62.1635 86.1953C61.846 86.6705 61.3947 87.0409 60.8666 87.2596C60.3386 87.4783 59.7576 87.5356 59.197 87.4241C58.6365 87.3126 58.1216 87.0374 57.7175 86.6332C57.3133 86.2291 57.0381 85.7142 56.9266 85.1537C56.8151 84.5931 56.8723 84.0121 57.0911 83.4841C57.3098 82.956 57.6802 82.5047 58.1554 82.1872C58.6306 81.8697 59.1893 81.7002 59.7608 81.7002C60.5266 81.7021 61.2605 82.0071 61.802 82.5486C62.3436 83.0902 62.6486 83.8241 62.6505 84.5899Z" fill="#263238"/>
<path d="M74.1949 83.1484C74.4798 83.6433 74.6117 84.2116 74.5738 84.7815C74.536 85.3513 74.3301 85.8972 73.9822 86.3501C73.6344 86.803 73.1601 87.1427 72.6193 87.3263C72.0785 87.5098 71.4954 87.529 70.9437 87.3814C70.392 87.2339 69.8964 86.9261 69.5195 86.4971C69.1426 86.068 68.9013 85.5369 68.826 84.9708C68.7507 84.4046 68.8449 83.8289 69.0966 83.3163C69.3483 82.8036 69.7463 82.3771 70.2403 82.0905C70.5692 81.8996 70.9326 81.7755 71.3096 81.7254C71.6866 81.6753 72.0698 81.7001 72.4372 81.7984C72.8046 81.8966 73.149 82.0665 73.4507 82.2981C73.7523 82.5298 74.0052 82.8187 74.1949 83.1484Z" fill="#263238"/>
<path d="M75.3458 212.29L45.4406 209.194L32.7742 180.446L22.9336 183.009C22.9336 183.009 30.204 213.39 38.3406 218.098C46.4772 222.805 74.2737 223.65 74.2737 223.65L75.3458 212.29Z" fill="#5532FA"/>
<path d="M91.2437 226.911C96.1097 221.436 95.6161 213.053 90.1411 208.187C84.6662 203.321 76.2832 203.815 71.4172 209.29C66.5511 214.765 67.0448 223.148 72.5197 228.014C77.9947 232.88 86.3777 232.386 91.2437 226.911Z" fill="#263238"/>
<path d="M81.331 231.375C78.2576 231.375 75.2793 230.309 72.9036 228.359C70.5279 226.41 68.9017 223.697 68.3021 220.682C67.7026 217.668 68.1667 214.539 69.6155 211.829C71.0643 209.118 73.408 206.994 76.2474 205.818C79.0868 204.642 82.2462 204.487 85.1872 205.379C88.1282 206.271 90.6689 208.155 92.3763 210.711C94.0838 213.266 94.8524 216.334 94.5511 219.393C94.2499 222.451 92.8974 225.311 90.7242 227.484C89.4935 228.721 88.0296 229.702 86.4173 230.37C84.8049 231.038 83.0761 231.38 81.331 231.375ZM81.331 204.849C78.2659 204.846 75.2945 205.906 72.9231 207.848C70.5518 209.79 68.9271 212.494 68.326 215.5C67.7249 218.505 68.1845 221.626 69.6265 224.331C71.0685 227.036 73.4037 229.157 76.2342 230.333C79.0647 231.509 82.2154 231.667 85.1495 230.78C88.0836 229.894 90.6194 228.017 92.3251 225.47C94.0307 222.924 94.8006 219.864 94.5035 216.814C94.2064 213.763 92.8608 210.91 90.6958 208.74C89.4697 207.505 88.0106 206.524 86.4031 205.857C84.7956 205.189 83.0716 204.846 81.331 204.849Z" fill="#263238"/>
<path d="M42.7598 220.368C48.1017 219.086 51.3925 213.716 50.11 208.374C48.8275 203.032 43.4575 199.741 38.1156 201.024C32.7738 202.306 29.483 207.676 30.7655 213.018C32.0479 218.36 37.418 221.651 42.7598 220.368Z" fill="#263238"/>
<path d="M32.8839 182.771C36.0587 179.596 36.0587 174.449 32.8839 171.274C29.7092 168.099 24.5619 168.099 21.3871 171.274C18.2123 174.449 18.2123 179.596 21.3871 182.771C24.5619 185.946 29.7092 185.946 32.8839 182.771Z" fill="#263238"/>
<path d="M39.8067 172.623L33.1128 178.276L30.6987 175.417L37.3926 169.765C37.7451 169.467 38.2014 169.321 38.6611 169.36C39.1208 169.399 39.5463 169.619 39.8439 169.971L40.0088 170.167C40.1573 170.341 40.2699 170.543 40.3401 170.761C40.4104 170.979 40.4368 171.209 40.4181 171.437C40.3993 171.665 40.3356 171.887 40.2307 172.091C40.1258 172.295 39.9817 172.476 39.8067 172.623Z" fill="#263238"/>
<path d="M31.3047 162.27V170.79C31.3047 170.856 31.2785 170.919 31.2319 170.965C31.1853 171.012 31.1221 171.038 31.0562 171.038H27.8186C27.7527 171.038 27.6895 171.012 27.6429 170.965C27.5963 170.919 27.5701 170.856 27.5701 170.79V162.27C27.5701 161.808 27.7534 161.366 28.0796 161.04C28.4058 160.714 28.8482 160.53 29.3096 160.53H29.5652C30.0265 160.53 30.469 160.714 30.7952 161.04C31.1214 161.366 31.3047 161.808 31.3047 162.27Z" fill="#263238"/>
<path d="M25.2753 162.303L27.1353 170.617C27.1497 170.682 27.1379 170.749 27.1026 170.805C27.0673 170.861 27.0114 170.9 26.947 170.914L23.7875 171.621C23.7232 171.635 23.6558 171.624 23.6002 171.588C23.5445 171.553 23.5052 171.497 23.4908 171.433L21.6308 163.118C21.53 162.668 21.6123 162.196 21.8594 161.807C22.1066 161.417 22.4983 161.142 22.9485 161.041L23.198 160.985C23.6482 160.885 24.12 160.967 24.5095 161.214C24.8991 161.461 25.1745 161.853 25.2753 162.303Z" fill="#263238"/>
<path d="M18.7906 164.386L23.0506 171.765C23.0836 171.822 23.0925 171.89 23.0755 171.953C23.0584 172.017 23.0168 172.071 22.9597 172.104L20.1558 173.723C20.0988 173.756 20.0309 173.765 19.9673 173.748C19.9036 173.731 19.8493 173.689 19.8164 173.632L15.5564 166.254C15.3257 165.854 15.2632 165.379 15.3826 164.934C15.502 164.488 15.7936 164.108 16.1931 163.877L16.4144 163.75C16.814 163.519 17.2888 163.456 17.7344 163.576C18.18 163.695 18.56 163.987 18.7906 164.386Z" fill="#263238"/>
<path d="M205.317 286.762L214.269 282.955L188.44 222.225L179.489 226.032L205.317 286.762Z" fill="#5532FA"/>
<path d="M189.722 228.028C194.457 222.439 193.765 214.07 188.176 209.336C182.587 204.601 174.218 205.293 169.483 210.882C164.748 216.471 165.441 224.84 171.03 229.575C176.619 234.31 184.988 233.617 189.722 228.028Z" fill="#263238"/>
<path d="M179.631 232.767C177.55 232.768 175.498 232.28 173.64 231.344C171.782 230.407 170.17 229.047 168.934 227.373C167.697 225.7 166.871 223.759 166.522 221.708C166.172 219.657 166.309 217.552 166.922 215.564C167.648 213.218 169.01 211.12 170.857 209.502C172.704 207.884 174.964 206.811 177.385 206.4C179.805 205.989 182.293 206.258 184.57 207.176C186.847 208.094 188.825 209.626 190.284 211.601C191.743 213.576 192.626 215.916 192.834 218.363C193.042 220.809 192.568 223.266 191.465 225.459C190.361 227.652 188.67 229.496 186.581 230.786C184.492 232.077 182.086 232.762 179.631 232.767ZM179.631 206.227C177.18 206.23 174.777 206.912 172.691 208.199C170.604 209.485 168.916 211.325 167.813 213.514C166.71 215.703 166.236 218.155 166.443 220.598C166.651 223.04 167.532 225.377 168.988 227.348C170.445 229.32 172.42 230.849 174.694 231.765C176.967 232.68 179.45 232.948 181.867 232.536C184.283 232.125 186.538 231.052 188.381 229.435C190.224 227.819 191.582 225.723 192.304 223.381C193.336 220.024 192.993 216.396 191.352 213.291C189.71 210.187 186.905 207.861 183.55 206.823C182.267 206.426 180.931 206.225 179.588 206.227H179.631Z" fill="#263238"/>
<path d="M206.456 259.11C207.927 253.817 204.829 248.333 199.535 246.863C194.242 245.392 188.759 248.49 187.288 253.783C185.817 259.076 188.916 264.56 194.209 266.03C199.502 267.501 204.985 264.403 206.456 259.11Z" fill="#263238"/>
<path d="M211.872 295.537C216.361 295.537 220.001 291.898 220.001 287.408C220.001 282.918 216.361 279.278 211.872 279.278C207.382 279.278 203.742 282.918 203.742 287.408C203.742 291.898 207.382 295.537 211.872 295.537Z" fill="#263238"/>
<path d="M201.239 295.595L205.791 288.125L208.987 290.073L204.434 297.542C204.194 297.936 203.807 298.218 203.359 298.327C202.911 298.436 202.438 298.362 202.044 298.122L201.825 297.989C201.629 297.871 201.459 297.715 201.323 297.53C201.187 297.346 201.089 297.136 201.035 296.914C200.981 296.691 200.971 296.46 201.006 296.234C201.041 296.007 201.12 295.79 201.239 295.595Z" fill="#263238"/>
<path d="M212.573 302.719L209.875 294.637C209.854 294.575 209.859 294.506 209.889 294.447C209.918 294.388 209.97 294.344 210.032 294.323L213.103 293.298C213.166 293.277 213.234 293.282 213.293 293.311C213.352 293.34 213.397 293.392 213.418 293.455L216.116 301.536C216.185 301.754 216.211 301.983 216.193 302.211C216.174 302.438 216.11 302.66 216.006 302.863C215.901 303.066 215.757 303.247 215.583 303.394C215.409 303.542 215.207 303.654 214.989 303.724L214.747 303.804C214.315 303.943 213.845 303.907 213.439 303.704C213.033 303.501 212.722 303.148 212.573 302.719Z" fill="#263238"/>
<path d="M218.287 300.782L213.89 293.484C213.873 293.456 213.862 293.425 213.857 293.393C213.852 293.36 213.854 293.327 213.861 293.296C213.869 293.264 213.883 293.234 213.903 293.208C213.922 293.182 213.946 293.16 213.974 293.143L216.748 291.472C216.775 291.455 216.806 291.444 216.839 291.439C216.871 291.434 216.904 291.436 216.936 291.444C216.967 291.451 216.997 291.465 217.023 291.485C217.05 291.504 217.072 291.529 217.089 291.556L221.486 298.854C221.724 299.249 221.795 299.723 221.684 300.171C221.573 300.618 221.289 301.004 220.893 301.242L220.675 301.374C220.279 301.612 219.806 301.683 219.358 301.572C218.91 301.461 218.525 301.177 218.287 300.782Z" fill="#263238"/>
<path d="M223.776 296.759L217.399 291.109C217.35 291.065 217.32 291.003 217.316 290.938C217.312 290.872 217.334 290.807 217.378 290.758L219.52 288.34C219.564 288.29 219.625 288.261 219.691 288.257C219.757 288.253 219.821 288.275 219.871 288.319L226.248 293.969C226.593 294.274 226.803 294.705 226.831 295.166C226.859 295.626 226.702 296.079 226.396 296.424L226.227 296.615C225.92 296.959 225.49 297.166 225.031 297.193C224.572 297.22 224.121 297.064 223.776 296.759Z" fill="#263238"/>
<path d="M77.3906 204.296C77.3906 204.296 78.3491 297.405 130.598 299.223C182.847 301.04 185.041 204.963 185.041 204.296C185.041 204.296 178.871 190.415 131.216 190.955C83.5605 191.494 77.3906 204.296 77.3906 204.296Z" fill="#5532FA"/>
<path d="M106.727 187.908H150.889C153.771 187.908 156.107 185.572 156.107 182.69V181.93C156.107 179.048 153.771 176.712 150.889 176.712H106.727C103.845 176.712 101.508 179.048 101.508 181.93V182.69C101.508 185.572 103.845 187.908 106.727 187.908Z" fill="#263238"/>
<path d="M126.906 105.115H130.719V85.8387H126.906V105.115Z" fill="#263238"/>
<path d="M187.11 162.503C193.13 161.072 196.85 155.032 195.419 149.012C193.989 142.992 187.948 139.271 181.928 140.702C175.908 142.133 172.188 148.173 173.619 154.193C175.05 160.213 181.09 163.933 187.11 162.503Z" fill="#5532FA"/>
<path d="M73.9015 161.775C79.9359 160.406 83.7182 154.404 82.3494 148.37C80.9806 142.336 74.9792 138.553 68.9448 139.922C62.9104 141.291 59.1282 147.292 60.4969 153.327C61.8657 159.361 67.8671 163.143 73.9015 161.775Z" fill="#5532FA"/>
<path d="M126.593 100.934C126.593 100.934 81.0396 100.387 73.8402 139.871C66.6408 179.354 105.151 180.064 116.234 180.809C121.254 181.15 132.003 181.185 141.489 181.015C162.491 180.653 177.33 176.592 182.378 157.109C182.979 154.825 183.357 152.488 183.507 150.13C184.835 128.745 170.4 99.8833 126.593 100.934Z" fill="#5532FA"/>
<path d="M159.637 161.028L93.4576 162.057C91.8064 162.087 90.1656 161.79 88.6293 161.184C87.0929 160.578 85.691 159.676 84.504 158.527C83.3169 157.379 82.3679 156.008 81.7114 154.493C81.0548 152.978 80.7035 151.348 80.6776 149.696C80.6494 148.045 80.9471 146.404 81.5536 144.867C82.1601 143.331 83.0636 141.929 84.2123 140.742C85.361 139.555 86.7324 138.606 88.2482 137.95C89.7639 137.293 91.3942 136.942 93.0458 136.916L159.225 135.887C160.876 135.857 162.518 136.153 164.054 136.758C165.591 137.364 166.993 138.266 168.181 139.415C169.368 140.563 170.317 141.934 170.973 143.45C171.629 144.966 171.98 146.596 172.005 148.248C172.034 149.9 171.737 151.541 171.131 153.078C170.525 154.615 169.621 156.017 168.472 157.204C167.323 158.391 165.952 159.34 164.435 159.996C162.919 160.652 161.289 161.003 159.637 161.028Z" fill="#263238"/>
<path d="M107.21 148.326C107.057 149.108 106.674 149.828 106.111 150.393C105.549 150.958 104.831 151.344 104.049 151.501C103.267 151.658 102.456 151.58 101.719 151.277C100.981 150.973 100.35 150.458 99.9058 149.796C99.4611 149.134 99.2227 148.355 99.2207 147.557C99.2187 146.76 99.4533 145.98 99.8947 145.315C100.336 144.651 100.965 144.133 101.701 143.826C102.437 143.519 103.247 143.437 104.03 143.59C104.55 143.692 105.044 143.895 105.485 144.189C105.927 144.482 106.306 144.859 106.601 145.299C106.897 145.739 107.102 146.232 107.207 146.752C107.312 147.271 107.313 147.806 107.21 148.326Z" fill="white"/>
<path d="M153.425 147.587C153.272 148.371 152.891 149.091 152.328 149.657C151.766 150.223 151.049 150.61 150.267 150.769C149.485 150.927 148.674 150.85 147.935 150.547C147.197 150.244 146.566 149.729 146.12 149.067C145.675 148.405 145.436 147.626 145.434 146.828C145.431 146.03 145.666 145.249 146.107 144.585C146.549 143.92 147.177 143.401 147.914 143.094C148.65 142.787 149.461 142.705 150.244 142.859C151.292 143.065 152.216 143.679 152.813 144.565C153.409 145.452 153.629 146.539 153.425 147.587Z" fill="white"/>
<path d="M146.773 241.272C146.513 244.825 145.206 248.222 143.017 251.032C140.827 253.842 137.853 255.94 134.472 257.06C131.09 258.18 127.452 258.272 124.018 257.325C120.584 256.378 117.507 254.433 115.178 251.738C112.849 249.042 111.371 245.717 110.932 242.181C110.493 238.646 111.112 235.06 112.711 231.877C114.31 228.693 116.817 226.055 119.915 224.296C123.013 222.538 126.563 221.737 130.116 221.996C134.88 222.345 139.311 224.571 142.435 228.186C145.558 231.801 147.118 236.508 146.773 241.272Z" fill="#263238"/>
<path d="M141.895 240.917C141.705 243.507 140.752 245.982 139.156 248.03C137.559 250.078 135.392 251.606 132.927 252.422C130.462 253.238 127.81 253.304 125.307 252.613C122.805 251.922 120.563 250.504 118.866 248.539C117.169 246.574 116.093 244.15 115.773 241.573C115.454 238.996 115.906 236.383 117.072 234.063C118.239 231.743 120.067 229.821 122.325 228.54C124.584 227.259 127.171 226.676 129.761 226.866C131.48 226.991 133.158 227.454 134.699 228.228C136.24 229.002 137.613 230.072 138.74 231.377C139.867 232.682 140.725 234.196 141.267 235.833C141.808 237.47 142.021 239.198 141.895 240.917Z" fill="white"/>
<path d="M135.568 243.302C135.467 242.585 135.427 241.861 135.447 241.137C135.411 239.781 135.383 237.842 135.383 235.457L135.525 235.719L128.773 231.779H129.149L122.333 235.606C122.149 235.918 122.582 235.187 122.539 235.265V236.273V237.288C122.539 237.956 122.539 238.623 122.504 239.276C122.504 240.583 122.454 241.847 122.433 243.068L122.248 242.741L128.922 246.817H128.624C130.704 245.695 132.422 244.8 133.594 244.19C134.224 243.831 134.882 243.522 135.561 243.267C135.031 243.698 134.46 244.076 133.857 244.396C132.706 245.106 131.017 246.107 128.887 247.335L128.737 247.42L128.588 247.335L121.829 243.394L121.645 243.288V243.061C121.645 241.84 121.659 240.576 121.687 239.269C121.687 238.616 121.687 237.956 121.687 237.281V236.273V235.293C121.645 235.371 122.078 234.647 121.893 234.953L128.73 231.161L128.929 231.055L129.114 231.168L135.781 235.244L135.93 235.336V235.506C135.852 237.963 135.774 239.937 135.703 241.279C135.721 241.956 135.676 242.633 135.568 243.302Z" fill="#5532FA"/>
<path d="M133.26 89.8914C135.714 87.4375 135.714 83.459 133.26 81.0051C130.806 78.5513 126.828 78.5513 124.374 81.0051C121.92 83.459 121.92 87.4375 124.374 89.8913C126.828 92.3452 130.806 92.3452 133.26 89.8914Z" fill="#5532FA"/>
<path d="M118.777 146.466C119.075 146.501 118.926 147.886 119.807 149.782C120.305 150.87 121.032 151.838 121.937 152.622C122.997 153.555 124.318 154.142 125.721 154.304C127.132 154.395 128.537 154.059 129.754 153.339C130.783 152.74 131.674 151.929 132.366 150.96C133.573 149.277 133.68 147.865 133.978 147.886C134.099 147.886 134.22 148.241 134.22 148.908C134.193 149.859 133.95 150.791 133.51 151.635C132.848 152.909 131.87 153.992 130.67 154.78C129.185 155.826 127.377 156.309 125.569 156.144C123.761 155.979 122.071 155.176 120.801 153.878C119.764 152.887 119.001 151.644 118.585 150.271C118.289 149.355 118.212 148.383 118.358 147.431C118.479 146.771 118.663 146.445 118.777 146.466Z" fill="white"/>
<path d="M179.432 164.862C179.361 164.862 180.178 163.584 180.966 161.347C181.946 158.418 182.566 155.381 182.812 152.302C183.096 149.234 183.167 146.15 183.025 143.072C182.975 141.886 182.918 140.942 182.861 140.232C182.813 139.889 182.802 139.541 182.826 139.195C182.917 139.53 182.976 139.872 183.003 140.218C183.103 140.878 183.202 141.837 183.287 143.058C183.51 146.16 183.474 149.276 183.181 152.373C182.931 155.481 182.27 158.541 181.214 161.475C180.88 162.36 180.476 163.217 180.007 164.038C179.839 164.329 179.647 164.604 179.432 164.862Z" fill="#263238"/>
<path d="M73.9257 138.549C73.8855 138.894 73.8118 139.234 73.7056 139.564C73.6133 139.884 73.5139 140.274 73.4216 140.743C73.3293 141.211 73.1873 141.723 73.1021 142.312C72.8531 143.68 72.6872 145.063 72.6051 146.451C72.5096 148.15 72.5333 149.853 72.6761 151.549C72.8347 153.241 73.1099 154.921 73.4997 156.576C73.8256 157.929 74.2335 159.262 74.7209 160.566C74.9126 161.127 75.1327 161.617 75.3102 162.057C75.4877 162.497 75.6581 162.866 75.8001 163.165C75.9619 163.471 76.095 163.792 76.1977 164.123C75.9956 163.841 75.8197 163.542 75.6723 163.228C75.4715 162.874 75.2891 162.509 75.1256 162.135C74.9268 161.709 74.6854 161.219 74.4795 160.658C73.9523 159.358 73.5158 158.022 73.1731 156.661C72.7576 154.99 72.468 153.291 72.3069 151.577C72.1622 149.865 72.1479 148.144 72.2643 146.43C72.3633 145.029 72.5578 143.636 72.8465 142.262C72.953 141.673 73.1021 141.155 73.2228 140.693C73.3435 140.232 73.4571 139.841 73.5636 139.522C73.6577 139.188 73.7788 138.863 73.9257 138.549Z" fill="#263238"/>
<path d="M77.1484 204.218L77.4182 204.296L78.2134 204.566L81.238 205.631L83.4248 206.412C84.2271 206.681 85.1146 206.937 86.0589 207.228C87.9546 207.789 90.0917 208.52 92.5199 209.088L96.3042 210.061C97.6248 210.395 99.0164 210.643 100.451 210.956C103.291 211.609 106.408 212.056 109.681 212.582C116.759 213.553 123.893 214.063 131.037 214.108C138.182 214.066 145.316 213.556 152.394 212.582C155.646 212.056 158.742 211.616 161.624 210.956C163.044 210.65 164.464 210.402 165.771 210.068L169.562 209.095C171.983 208.527 174.12 207.796 176.016 207.235C176.96 206.944 177.848 206.689 178.65 206.419L180.837 205.638L183.861 204.573L184.657 204.303C184.746 204.268 184.839 204.241 184.934 204.225L184.671 204.338L183.89 204.644L180.887 205.773L178.65 206.61C177.855 206.887 176.967 207.15 176.023 207.455C174.127 208.038 171.997 208.783 169.569 209.372L165.778 210.366C164.464 210.707 163.066 210.963 161.631 211.282C158.791 211.95 155.667 212.404 152.401 212.944C145.309 213.939 138.157 214.458 130.995 214.499C123.835 214.453 116.686 213.931 109.595 212.937C106.337 212.404 103.205 211.943 100.365 211.275C98.9454 210.956 97.5254 210.7 96.219 210.359L92.4276 209.365C89.9994 208.776 87.8694 208.03 85.9737 207.448C85.0294 207.143 84.149 206.88 83.3467 206.603L81.167 205.787L78.1637 204.658L77.3827 204.353C77.3005 204.315 77.2221 204.27 77.1484 204.218Z" fill="#263238"/>
<g opacity="0.3">
<path d="M77.3906 204.295C77.3906 204.295 83.5605 191.515 131.216 190.954C178.871 190.393 185.041 204.295 185.041 204.295C185.041 204.295 136.945 228.002 77.3906 204.295Z" fill="black"/>
</g>
<path d="M120.821 103.887C120.767 103.892 120.712 103.892 120.658 103.887L120.182 103.936C119.756 103.979 119.131 103.993 118.329 104.086C116.065 104.305 113.819 104.678 111.605 105.2C100.156 107.822 90.0576 114.533 83.2051 124.072C79.8945 128.656 77.3879 133.77 75.7927 139.195C75.5442 139.962 75.4093 140.572 75.2886 140.977L75.1537 141.446C75.141 141.5 75.1219 141.552 75.0969 141.602C75.0875 141.548 75.0875 141.493 75.0969 141.439C75.0969 141.311 75.1537 141.155 75.1963 140.963C75.2957 140.551 75.4022 139.934 75.6294 139.153C76.222 136.947 76.9815 134.789 77.9014 132.699C80.9362 125.751 85.5563 119.611 91.3914 114.771C97.2514 109.967 104.155 106.602 111.548 104.945C113.775 104.439 116.037 104.104 118.315 103.944C119.124 103.873 119.735 103.88 120.175 103.858H120.658C120.771 103.873 120.821 103.88 120.821 103.887Z" fill="white"/>
<path d="M76.2546 158.543C75.9701 158.103 75.7501 157.625 75.6014 157.123C74.7592 154.75 74.3668 152.241 74.4441 149.725C74.4239 149.202 74.4862 148.68 74.6287 148.177C74.7423 148.177 74.5861 150.548 75.0405 153.417C75.4949 156.285 76.3611 158.5 76.2546 158.543Z" fill="white"/>
<path d="M64.3058 154.873C64.3058 154.873 64.1425 154.759 63.9224 154.49C63.6086 154.107 63.3394 153.69 63.1201 153.247C62.3618 151.779 62.0717 150.115 62.2888 148.477C62.5059 146.839 63.2197 145.307 64.3342 144.088C64.6606 143.715 65.03 143.381 65.4347 143.094C65.5736 142.977 65.7323 142.886 65.9033 142.824C65.9459 142.881 65.3069 143.314 64.533 144.244C63.5173 145.461 62.8674 146.94 62.6588 148.511C62.4501 150.082 62.6913 151.68 63.3544 153.119C63.8514 154.248 64.3555 154.83 64.3058 154.873Z" fill="white"/>
<path d="M129.22 81.0682C128.666 81.0073 128.108 80.9954 127.552 81.0327C126.89 81.0908 126.25 81.2999 125.681 81.6438C125.112 81.9877 124.629 82.4573 124.27 83.0167C123.911 83.576 123.685 84.2102 123.609 84.8706C123.533 85.531 123.609 86.2 123.831 86.8263C124.023 87.3458 124.261 87.8472 124.541 88.3244C124.541 88.3244 124.399 88.2392 124.201 88.012C123.928 87.6834 123.712 87.3114 123.562 86.9115C123.291 86.2485 123.184 85.53 123.249 84.8169C123.315 84.1037 123.551 83.4168 123.938 82.8143C124.326 82.2118 124.852 81.7115 125.474 81.3557C126.096 80.9998 126.794 80.799 127.509 80.77C127.934 80.7405 128.361 80.7813 128.773 80.8907C129.093 80.9404 129.22 81.0469 129.22 81.0682Z" fill="white"/>
<path d="M191.104 146.26C191.026 146.345 189.926 145.287 188.264 144.492C186.603 143.697 185.09 143.462 185.105 143.349C186.262 143.32 187.406 143.599 188.42 144.158C189.488 144.605 190.415 145.331 191.104 146.26Z" fill="white"/>
<path d="M93.7203 270.56C93.6879 270.518 93.6594 270.472 93.6351 270.425L93.4008 270.006C93.1878 269.601 92.9038 269.062 92.5346 268.373C92.35 268.018 92.1512 267.62 91.924 267.194L91.2566 265.774C90.7738 264.745 90.2342 263.573 89.7017 262.224C89.4319 261.564 89.1479 260.868 88.8497 260.151C88.5515 259.434 88.2959 258.653 88.0048 257.865C87.3942 256.296 86.8759 254.571 86.2724 252.781C85.1577 249.16 84.0643 245.149 83.1058 240.889C82.1473 236.629 81.4515 232.518 80.8835 228.776C80.3155 225.035 79.9463 221.676 79.7191 218.794C79.5842 217.374 79.499 216.082 79.428 214.946C79.357 213.81 79.2931 212.816 79.2718 212.035C79.2505 211.254 79.2292 210.65 79.2079 210.196V209.72C79.2002 209.666 79.2002 209.611 79.2079 209.557C79.2161 209.611 79.2161 209.666 79.2079 209.72L79.2505 210.196C79.2505 210.643 79.3286 211.261 79.3783 212.027C79.428 212.794 79.499 213.802 79.5984 214.931C79.6978 216.06 79.7901 217.352 79.9463 218.772C80.2019 221.612 80.6563 224.992 81.1888 228.712C81.7213 232.433 82.4952 236.522 83.4324 240.782C84.3696 245.042 85.4701 249.047 86.5564 252.661C87.1599 254.45 87.664 256.168 88.2604 257.737C88.5444 258.532 88.8142 259.292 89.084 260.023L89.9076 262.111C90.4188 263.439 90.9442 264.617 91.4128 265.661L92.0518 267.081C92.2577 267.514 92.4565 267.912 92.634 268.274L93.4292 269.935L93.628 270.368C93.671 270.425 93.7024 270.491 93.7203 270.56Z" fill="white"/>
<path d="M65.9387 212.673C64.2065 212.738 62.4718 212.676 60.7486 212.488C59.0173 212.427 57.2925 212.245 55.5869 211.941C57.3191 211.876 59.0538 211.937 60.777 212.126C62.5083 212.186 64.2332 212.369 65.9387 212.673Z" fill="white"/>
<path d="M39.2279 197.514C38.2209 196.048 37.317 194.513 36.5228 192.921C35.6226 191.387 34.8302 189.793 34.1514 188.149C35.1553 189.619 36.0567 191.156 36.8494 192.75C37.7541 194.28 38.549 195.872 39.2279 197.514Z" fill="white"/>
<path d="M118.925 292.946C118.646 292.941 118.367 292.908 118.094 292.847C117.343 292.713 116.601 292.533 115.872 292.307C114.789 291.978 113.731 291.572 112.706 291.093C111.456 290.491 110.255 289.793 109.113 289.006C107.984 288.199 106.92 287.304 105.932 286.329C105.132 285.527 104.392 284.668 103.717 283.759C103.255 283.152 102.835 282.514 102.46 281.849C102.307 281.615 102.181 281.365 102.084 281.103C102.141 281.068 102.737 282.097 103.923 283.603C104.62 284.478 105.372 285.308 106.174 286.088C108.139 287.997 110.394 289.583 112.855 290.788C113.86 291.273 114.894 291.698 115.95 292.059C117.768 292.669 118.939 292.875 118.925 292.946Z" fill="white"/>
<path d="M129.817 260.102C129.653 260.13 129.487 260.147 129.32 260.151C128.848 260.191 128.374 260.206 127.9 260.194C126.135 260.155 124.383 259.871 122.696 259.349C121.53 258.986 120.395 258.53 119.302 257.986C118.049 257.341 116.86 256.578 115.752 255.707C113.186 253.735 111.163 251.143 109.874 248.175C108.584 245.206 108.071 241.959 108.382 238.738C108.498 237.34 108.748 235.956 109.128 234.605C109.468 233.434 109.907 232.294 110.441 231.197C111.211 229.607 112.201 228.132 113.381 226.817C113.697 226.457 114.034 226.116 114.389 225.794C114.506 225.677 114.632 225.568 114.765 225.468C114.765 225.468 114.297 225.972 113.487 226.888C112.351 228.224 111.396 229.704 110.647 231.29C109.531 233.627 108.866 236.154 108.688 238.738C108.4 241.902 108.912 245.088 110.178 248.002C111.443 250.916 113.421 253.466 115.93 255.416C117.005 256.281 118.16 257.042 119.38 257.688C120.449 258.252 121.563 258.726 122.71 259.108C124.372 259.647 126.098 259.964 127.843 260.052C129.129 260.102 129.817 260.059 129.817 260.102Z" fill="white"/>
<path d="M43.8572 204.189C43.8572 204.245 43.3105 203.983 42.4372 203.777C41.2686 203.521 40.0573 203.533 38.8941 203.812C37.7308 204.091 36.6459 204.63 35.7206 205.389C35.0106 205.978 34.6698 206.446 34.6201 206.411C34.8149 205.941 35.1163 205.523 35.5005 205.19C36.422 204.344 37.544 203.748 38.7604 203.457C39.9767 203.166 41.2472 203.191 42.4514 203.528C42.9646 203.637 43.4457 203.863 43.8572 204.189Z" fill="white"/>
<path d="M148.703 133.594C148.703 133.693 139.984 133.778 129.235 133.778C118.486 133.778 109.76 133.693 109.76 133.594C109.76 133.494 118.479 133.409 129.235 133.409C139.992 133.409 148.703 133.48 148.703 133.594Z" fill="white"/>
<path d="M115.476 177.99C115.369 178.02 115.259 178.037 115.149 178.04L114.198 178.125C113.786 178.16 113.282 178.189 112.692 178.203C112.103 178.217 111.436 178.246 110.697 178.203C109.213 178.203 107.453 178.096 105.5 177.891C103.387 177.645 101.289 177.282 99.2166 176.804C97.1486 176.308 95.1101 175.697 93.1106 174.972C91.4815 174.376 89.8843 173.696 88.3252 172.935C87.6152 172.622 87.0685 172.296 86.5502 172.019C86.0319 171.742 85.5917 171.493 85.2367 171.309L84.4202 170.812C84.3234 170.758 84.2329 170.694 84.1504 170.62C84.1504 170.62 84.264 170.62 84.4557 170.748L85.3077 171.181C85.6698 171.38 86.1171 171.614 86.6425 171.891C87.1679 172.168 87.7643 172.452 88.4388 172.75C89.7736 173.375 91.3995 174.042 93.2313 174.703C97.2125 176.13 101.343 177.102 105.543 177.599C107.474 177.827 109.228 177.954 110.697 177.99C111.407 178.033 112.117 177.99 112.692 177.99C113.267 177.99 113.779 177.99 114.19 177.99H115.142C115.252 177.972 115.365 177.972 115.476 177.99Z" fill="white"/>
<path d="M172.154 209.982C172.101 210.017 172.044 210.043 171.983 210.061L171.472 210.252L169.498 210.962C168.639 211.275 167.589 211.637 166.346 211.999C165.104 212.361 163.705 212.83 162.122 213.227L159.651 213.88C158.792 214.1 157.883 214.285 156.953 214.505C155.093 214.952 153.076 215.307 150.96 215.712C141.745 217.317 132.379 217.891 123.036 217.423C120.906 217.288 118.84 217.182 116.937 216.962C115.986 216.862 115.063 216.791 114.182 216.671L111.648 216.323C110.029 216.131 108.58 215.84 107.31 215.613C106.039 215.386 104.938 215.173 104.051 214.967L102.006 214.512L101.473 214.384C101.412 214.374 101.352 214.355 101.296 214.328C101.36 214.322 101.424 214.322 101.488 214.328L102.02 214.42L104.079 214.81C104.974 214.988 106.067 215.194 107.345 215.386C108.623 215.577 110.064 215.854 111.683 216.032L114.211 216.351C115.091 216.465 116.014 216.529 116.966 216.621C118.861 216.827 120.906 216.919 123.05 217.047C127.346 217.224 132.067 217.232 137.023 216.94C141.979 216.649 146.658 216.032 150.896 215.336C153.026 214.945 155.029 214.626 156.889 214.171C157.819 213.958 158.728 213.781 159.587 213.568L162.058 212.936C163.641 212.56 165.04 212.12 166.282 211.765C167.525 211.41 168.59 211.055 169.449 210.792L171.444 210.153L171.969 209.997L172.154 209.982Z" fill="white"/>
</svg>
