<svg width="19" height="22" viewBox="0 0 19 22" fill="none" xmlns="http://www.w3.org/2000/svg">
<path d="M17.6504 3.50098H13.1504V2.37598C13.1504 1.8787 12.9528 1.40178 12.6012 1.05015C12.2496 0.698521 11.7727 0.500977 11.2754 0.500977H7.52539C7.02811 0.500977 6.5512 0.698521 6.19957 1.05015C5.84794 1.40178 5.65039 1.8787 5.65039 2.37598V3.50098H1.15039C0.951478 3.50098 0.760713 3.57999 0.620061 3.72065C0.479408 3.8613 0.400391 4.05206 0.400391 4.25098C0.400391 4.44989 0.479408 4.64065 0.620061 4.78131C0.760713 4.92196 0.951478 5.00098 1.15039 5.00098H1.94727L2.83789 19.2941C2.90445 20.5527 3.86914 21.501 5.08789 21.501H13.7129C14.9377 21.501 15.8832 20.5738 15.9629 19.2979L16.8535 5.00098H17.6504C17.8493 5.00098 18.0401 4.92196 18.1807 4.78131C18.3214 4.64065 18.4004 4.44989 18.4004 4.25098C18.4004 4.05206 18.3214 3.8613 18.1807 3.72065C18.0401 3.57999 17.8493 3.50098 17.6504 3.50098ZM6.42711 18.501H6.40039C6.20602 18.5011 6.0192 18.4258 5.87929 18.2908C5.73938 18.1559 5.65732 17.9719 5.65039 17.7777L5.27539 7.2777C5.2683 7.07878 5.34053 6.8852 5.47617 6.73954C5.61181 6.59388 5.79976 6.50806 5.99867 6.50098C6.19758 6.49389 6.39117 6.56611 6.53683 6.70175C6.68249 6.8374 6.7683 7.02535 6.77539 7.22426L7.15039 17.7243C7.15396 17.8228 7.13808 17.921 7.10366 18.0134C7.06923 18.1057 7.01693 18.1904 6.94976 18.2625C6.88258 18.3347 6.80185 18.3929 6.71217 18.4338C6.62249 18.4747 6.52562 18.4975 6.42711 18.501ZM10.1504 17.751C10.1504 17.9499 10.0714 18.1407 9.93072 18.2813C9.79007 18.422 9.5993 18.501 9.40039 18.501C9.20148 18.501 9.01071 18.422 8.87006 18.2813C8.72941 18.1407 8.65039 17.9499 8.65039 17.751V7.25098C8.65039 7.05206 8.72941 6.8613 8.87006 6.72065C9.01071 6.57999 9.20148 6.50098 9.40039 6.50098C9.5993 6.50098 9.79007 6.57999 9.93072 6.72065C10.0714 6.8613 10.1504 7.05206 10.1504 7.25098V17.751ZM11.6504 3.50098H7.15039V2.37598C7.14983 2.32657 7.15914 2.27756 7.17778 2.2318C7.19643 2.18605 7.22403 2.14449 7.25897 2.10955C7.2939 2.07462 7.33547 2.04702 7.38122 2.02837C7.42697 2.00972 7.47599 2.00041 7.52539 2.00098H11.2754C11.3248 2.00041 11.3738 2.00972 11.4196 2.02837C11.4653 2.04702 11.5069 2.07462 11.5418 2.10955C11.5768 2.14449 11.6044 2.18605 11.623 2.2318C11.6416 2.27756 11.651 2.32657 11.6504 2.37598V3.50098ZM13.1504 17.7777C13.1435 17.9719 13.0614 18.1559 12.9215 18.2908C12.7816 18.4258 12.5948 18.5011 12.4004 18.501H12.3732C12.2747 18.4975 12.1779 18.4746 12.0883 18.4337C11.9987 18.3927 11.918 18.3345 11.8509 18.2624C11.7837 18.1903 11.7315 18.1056 11.6971 18.0133C11.6627 17.9209 11.6468 17.8227 11.6504 17.7243L12.0254 7.22426C12.0289 7.12577 12.0518 7.02893 12.0927 6.93928C12.1336 6.84963 12.1918 6.76892 12.264 6.70175C12.3361 6.63459 12.4207 6.58229 12.5131 6.54784C12.6054 6.51339 12.7036 6.49747 12.8021 6.50098C12.9006 6.50449 12.9974 6.52736 13.0871 6.56829C13.1767 6.60922 13.2575 6.66741 13.3246 6.73954C13.3918 6.81167 13.4441 6.89631 13.4785 6.98865C13.513 7.08099 13.5289 7.1792 13.5254 7.2777L13.1504 17.7777Z" fill="#F94141"/>
</svg>
