<svg width="20" height="18" viewBox="0 0 20 18" fill="none" xmlns="http://www.w3.org/2000/svg">
<path d="M5.5 8.99903C5.5 8.80011 5.57902 8.60935 5.71967 8.4687C5.86032 8.32804 6.05109 8.24903 6.25 8.24903H13V3.37402C13 1.87402 11.4161 0.749023 10 0.749023H2.875C2.17904 0.749768 1.51179 1.02657 1.01967 1.51869C0.527545 2.01081 0.250744 2.67806 0.25 3.37402V14.624C0.250744 15.32 0.527545 15.9872 1.01967 16.4794C1.51179 16.9715 2.17904 17.2483 2.875 17.249H10.375C11.071 17.2483 11.7382 16.9715 12.2303 16.4794C12.7225 15.9872 12.9993 15.32 13 14.624V9.74903H6.25C6.05109 9.74903 5.86032 9.67001 5.71967 9.52936C5.57902 9.3887 5.5 9.19794 5.5 8.99903ZM19.5302 8.46887L15.7802 4.71887C15.6384 4.58415 15.4496 4.51016 15.254 4.51266C15.0584 4.51517 14.8716 4.59397 14.7333 4.73227C14.5949 4.87057 14.5161 5.05743 14.5136 5.253C14.5111 5.44857 14.5851 5.63738 14.7198 5.77918L17.1892 8.24903H13V9.74903H17.1892L14.7198 12.2189C14.6473 12.2878 14.5892 12.3706 14.5492 12.4623C14.5091 12.5541 14.4878 12.6529 14.4865 12.753C14.4852 12.8531 14.504 12.9524 14.5417 13.0452C14.5794 13.1379 14.6353 13.2221 14.7061 13.2929C14.7769 13.3637 14.8611 13.4196 14.9539 13.4573C15.0466 13.4951 15.1459 13.5138 15.246 13.5125C15.3461 13.5113 15.445 13.49 15.5367 13.4499C15.6284 13.4098 15.7112 13.3518 15.7802 13.2792L19.5302 9.52918C19.6707 9.38854 19.7497 9.19785 19.7497 8.99903C19.7497 8.8002 19.6707 8.60951 19.5302 8.46887Z" fill="#FF4A4A"/>
</svg>
