<svg width="14" height="24" viewBox="0 0 14 24" fill="none" xmlns="http://www.w3.org/2000/svg">
<path d="M13.0405 12.0171C13.0405 15.4371 13.0405 18.8486 13.0405 22.2687C13.0405 23.1471 12.5714 23.7783 11.7783 23.9574C11.6162 23.9915 11.4371 24 11.2751 24C8.10235 24 4.92964 24 1.76546 24C0.648187 24 0 23.3433 0 22.2345C0 15.4115 0 8.58849 0 1.76546C0 0.656716 0.665245 0 1.76546 0C4.93817 0 8.11087 0 11.2751 0C12.3753 0 13.0405 0.665245 13.0405 1.76546C13.0405 5.1855 13.0405 8.60554 13.0405 12.0171ZM6.49893 9.11727C7.53092 9.1258 8.35821 8.36674 8.47761 7.32623C8.57996 6.37953 7.88913 5.44136 6.92537 5.23667C6.71215 5.19403 6.48188 5.19403 6.26013 5.15991C5.63753 5.04051 5.21109 4.41791 5.32196 3.80384C5.43284 3.19829 5.93603 2.78038 6.53305 2.78891C7.14712 2.79744 7.63326 3.24947 7.70149 3.91471C7.72708 4.18763 7.82942 4.36674 8.1194 4.36674C8.34968 4.36674 8.49467 4.14499 8.46908 3.85501C8.40085 2.9339 7.70149 2.18337 6.77185 2.03838C5.89339 1.90192 4.98081 2.43923 4.66525 3.29211C4.34115 4.14499 4.63113 5.14286 5.42431 5.61194C5.77399 5.81663 6.21748 5.90192 6.62687 5.96162C7.30917 6.07249 7.80384 6.68657 7.68443 7.34328C7.57356 7.96588 7.07036 8.37527 6.44776 8.34968C5.84222 8.33262 5.37313 7.8806 5.3049 7.23241C5.27932 6.95949 5.17697 6.78038 4.88699 6.78038C4.63966 6.78891 4.51173 7.01066 4.53731 7.32623C4.65672 8.34968 5.48401 9.11727 6.49893 9.11727ZM6.48188 21.9872C7.38593 21.9872 8.28998 21.9872 9.19403 21.9872C9.77399 21.9872 9.84222 21.919 9.84222 21.322C9.84222 20.9467 9.84222 20.58 9.84222 20.2047C9.84222 19.9147 9.70576 19.7697 9.41578 19.7697C7.47974 19.7697 5.54371 19.7697 3.60768 19.7697C3.3177 19.7697 3.18124 19.9232 3.18124 20.2047C3.18124 20.6226 3.18124 21.032 3.18124 21.4499C3.18124 21.8849 3.28358 21.9872 3.73561 21.9872C4.64819 21.9872 5.56077 21.9872 6.48188 21.9872ZM6.49893 11.2836C7.36034 11.2836 8.22175 11.2836 9.08316 11.2836C9.42431 11.2836 9.60341 11.1471 9.58635 10.8913C9.5693 10.5842 9.3646 10.516 9.10021 10.516C7.3774 10.516 5.65458 10.516 3.93177 10.516C3.66738 10.516 3.46269 10.5842 3.44563 10.8913C3.42857 11.1471 3.60768 11.2836 3.94883 11.2836C4.79318 11.2836 5.64606 11.2836 6.49893 11.2836ZM6.4904 18.371C7.3774 18.371 8.25586 18.371 9.14286 18.371C9.39872 18.371 9.58635 18.2687 9.58635 17.9872C9.58635 17.7228 9.42431 17.6119 9.16844 17.6034C7.39446 17.6034 5.61194 17.6034 3.83795 17.6034C3.6162 17.6034 3.47122 17.7058 3.4371 17.936C3.40299 18.2004 3.57356 18.3625 3.89765 18.3625C4.76759 18.371 5.629 18.371 6.4904 18.371ZM6.51599 14.823C7.20682 14.823 7.89765 14.823 8.58849 14.823C8.81023 14.823 9.03198 14.8316 9.25373 14.806C9.45842 14.7889 9.61194 14.6439 9.5693 14.4478C9.53518 14.3028 9.39019 14.1663 9.26226 14.0725C9.19403 14.0213 9.05757 14.0554 8.94669 14.0554C7.60768 14.0554 6.26866 14.0554 4.92964 14.0554C4.57143 14.0554 4.20469 14.0469 3.84648 14.064C3.52239 14.081 3.3177 14.3625 3.47974 14.6013C3.56503 14.7207 3.76972 14.8145 3.93177 14.8145C4.79318 14.8316 5.65458 14.823 6.51599 14.823Z" fill="white"/>
<path d="M9.0663 20.5459C9.0663 20.7676 9.0663 20.9638 9.0663 21.1941C7.36907 21.1941 5.68037 21.1941 3.97461 21.1941C3.97461 20.9809 3.97461 20.7762 3.97461 20.5459C5.66331 20.5459 7.34348 20.5459 9.0663 20.5459Z" fill="white"/>
</svg>
