<svg width="21" height="21" viewBox="0 0 21 21" fill="none" xmlns="http://www.w3.org/2000/svg">
<path fill-rule="evenodd" clip-rule="evenodd" d="M18.8042 8.81673L17.1289 13.8427C15.9476 17.3864 15.357 19.1583 14.4909 19.6618C13.667 20.1407 12.6494 20.1407 11.8255 19.6618C10.9594 19.1582 10.3688 17.3864 9.18755 13.8427C8.99789 13.2738 8.90305 12.9892 8.74386 12.7515C8.58958 12.521 8.39161 12.323 8.16116 12.1687C7.92336 12.0096 7.63886 11.9147 7.06987 11.7251C3.52619 10.5438 1.75435 9.95322 1.25084 9.08712C0.771854 8.2632 0.771854 7.2456 1.25085 6.42168C1.75435 5.55559 3.52619 4.96497 7.06987 3.78375L12.0959 2.10841C16.4865 0.644861 18.6819 -0.0869132 19.8407 1.07192C20.9995 2.23075 20.2677 4.42608 18.8042 8.81673ZM11.6727 9.18897C11.3885 8.90151 11.391 8.43802 11.6785 8.15373L15.7882 4.08934C16.0756 3.80505 16.5391 3.80762 16.8234 4.09508C17.1077 4.38254 17.1051 4.84603 16.8177 5.13032L12.708 9.19471C12.4205 9.479 11.957 9.47643 11.6727 9.18897Z" fill="#5532FA"/>
</svg>
