<svg width="14" height="14" viewBox="0 0 14 14" fill="none" xmlns="http://www.w3.org/2000/svg">
<path d="M8.59094 7.00195L13.0441 2.54883C13.2554 2.33786 13.3743 2.05157 13.3746 1.75295C13.3748 1.45432 13.2564 1.16783 13.0455 0.956483C12.8345 0.745138 12.5482 0.626258 12.2496 0.625995C11.951 0.625731 11.6645 0.744105 11.4531 0.955077L7 5.4082L2.54687 0.955077C2.33553 0.743732 2.04888 0.625 1.75 0.625C1.45111 0.625 1.16447 0.743732 0.953124 0.955077C0.741779 1.16642 0.623047 1.45307 0.623047 1.75195C0.623047 2.05084 0.741779 2.33748 0.953124 2.54883L5.40625 7.00195L0.953124 11.4551C0.741779 11.6664 0.623047 11.9531 0.623047 12.252C0.623047 12.5508 0.741779 12.8375 0.953124 13.0488C1.16447 13.2602 1.45111 13.3789 1.75 13.3789C2.04888 13.3789 2.33553 13.2602 2.54687 13.0488L7 8.5957L11.4531 13.0488C11.6645 13.2602 11.9511 13.3789 12.25 13.3789C12.5489 13.3789 12.8355 13.2602 13.0469 13.0488C13.2582 12.8375 13.377 12.5508 13.377 12.252C13.377 11.9531 13.2582 11.6664 13.0469 11.4551L8.59094 7.00195Z" fill="#666666"/>
</svg>
